<svg viewBox="0 0 100.00001 125" xmlns="http://www.w3.org/2000/svg"><path d="m25.78125 10.65625c-1.19804.03338-2.390296.356511-3.5 1-3.551054 2.059166-4.777916 6.605196-2.71875 10.15625s6.605196 4.777916 10.15625 2.71875c.456937-.264966.872582-.566293 1.25-.90625l11.90625 8.84375c-.102601-.265069-.210456-.53323-.28125-.8125-.377046-.995022-.216682-1.991187.03125-2.96875l-9.9375-7.34375c1.040295-2.147247 1.036979-4.749341-.25-6.96875-1.415677-2.441349-4.020561-3.792192-6.65625-3.71875zm53.90625 3.09375c-1.19804.03338-2.421546.356511-3.53125 1-3.09834 1.796649-4.395139 5.479306-3.3125 8.75l-11.125 6.65625c-.01921 1.463022-.639159 2.857354-1.375 4.1875l13.90625-8.34375c2.284876 2.676533 6.222001 3.422095 9.375 1.59375 3.551054-2.059166 4.746666-6.605196 2.6875-10.15625-1.415677-2.441349-3.989311-3.760942-6.625-3.6875zm-27.625 6.0625c-6.491611 0-6.40625 5.65625-6.40625 5.65625l-.0625 3.03125c-.530352-.0072-.65625.514594-.65625 1.5625 0 1.570663.973035 3.213529 1.84375 4.0625.295074 1.234764.866408 2.327458 1.625 3.15625-.02641.0162-.06722.01506-.09375.03125-2.587069 1.578079-5.672508 2.649945-7.6875 3.71875-.555696.29448-1.144777.811066-1.625 1.46875-.32697.452412-.598878.935264-.84375 1.4375-.009.01782-.0225.04466-.03125.0625-.0335.0697-.06169.148406-.09375.21875-.48672 1.041571-.840864 2.134504-1.03125 3.25-.004.02072.0038.04182 0 .0625-.0086.05238-.02313.10387-.03125.15625-.03411.193194-.06636.403903-.09375.59375-.02338.156384-.04306.493278-.03125.65625-.0018.0099.0009.02135 0 .03125-.07182 1.018098 1.84375 1.34375 1.84375 1.34375.715321.211536 2.029012.44187 3.625.65625 2.847115.46989 5.761037.630802 8.625.71875.277992.0086.572546-.0011.875 0h.03125c.150498 0 .31314.0018.46875 0 .302454-.0018.59699.0086.875 0 2.862703-.08791 5.779109-.249346 8.625-.71875 1.598346-.21456 2.908924-.444498 3.625-.65625 0 0 1.915552-.325652 1.84375-1.34375-.0018-.0099.0009-.02133 0-.03125.01188-.162972-.0079-.499866-.03125-.65625-.03917-.271261-.103166-.566172-.15625-.84375-.210852-1.219968-.58763-2.440343-1.15625-3.5625-.0063-.0126.0065-.01868 0-.03125-.23436-.469476-.505438-.918878-.8125-1.34375-.480222-.657684-1.069304-1.17427-1.625-1.46875-2.014992-1.068805-5.100449-2.140671-7.6875-3.71875-.02651-.0162-.06734-.01497-.09375-.03125.75861-.828792 1.329925-1.921486 1.625-3.15625.870714-.848971 1.8125-2.491837 1.8125-4.0625 0-1.047906-.12588-1.569664-.65625-1.5625l-.03125-3.03125s.08537-5.65625-6.40625-5.65625zm-13.46875 19.65625-19.375 4.84375c-.103388-.228878-.215052-.465559-.34375-.6875-2.059166-3.551054-6.605196-4.746666-10.15625-2.6875-3.5510537 2.059166-4.7779163 6.605196-2.71875 10.15625s6.605196 4.746666 10.15625 2.6875c2.450927-1.42123 3.803575-4.041145 3.71875-6.6875l15.84375-3.9375c.07438-.159517.172762-.313302.25-.46875.603648-1.339254 1.514598-2.380579 2.625-3.21875zm31.125 7.78125c.20349 1.074546.137248 2.244139-.3125 3.21875l11.3125 7.34375c-.855939 2.066285-.802327 4.478297.40625 6.5625 2.059166 3.551054 6.605196 4.777916 10.15625 2.71875s4.777916-6.605196 2.71875-10.15625-6.605196-4.777916-10.15625-2.71875c-.574435.3331-1.08329.738901-1.53125 1.1875zm-25.3125 6.5-7.96875 20.84375c-1.689316-.317982-3.52127-.05496-5.125.875-3.551054 2.059166-4.746666 6.605196-2.6875 10.15625s6.605196 4.777916 10.15625 2.71875 4.777916-6.605196 2.71875-10.15625c-.607794-1.048147-1.45443-1.883708-2.40625-2.5l8.3125-21.65625c-.996859-.07277-2.0091-.172782-3-.28125z" transform="translate(0 -.000005)"/></svg>