<svg enable-background="new 0 0 100 100" viewBox="0 0 100 125" xmlns="http://www.w3.org/2000/svg"><circle cx="50" cy="70.5" r="2"/><path d="m48.5 64c0 .8.7 1.5 1.5 1.5s1.5-.7 1.5-1.5v-27c0-.8-.7-1.5-1.5-1.5s-1.5.7-1.5 1.5z"/><path d="m50 20.3c-13.8 0-23.7 10.2-23.7 24.3 0 8.2 3.7 13.5 6.9 18.1 2.5 3.6 4.6 6.7 4.6 10.4 0 4.9 8.1 7 12.2 7s12.2-2.1 12.2-7c0-3.8 2.2-6.9 4.6-10.4 3.2-4.6 6.9-9.9 6.9-18.1 0-14-9.9-24.3-23.7-24.3zm14.4 40.7c-2.7 3.8-5.2 7.4-5.2 12.1 0 2-5.3 4-9.2 4s-9.2-2-9.2-4c0-4.7-2.5-8.3-5.2-12.1-3.1-4.5-6.4-9.1-6.4-16.4 0-12.3 8.7-21.3 20.7-21.3s20.7 9 20.7 21.3c.1 7.3-3.1 11.9-6.2 16.4z"/><path d="m39.2 82.1c2.9 2.1 6.4 3.1 10.9 3.1 4.4 0 7.9-1 10.8-3.1.7-.5.8-1.4.3-2.1s-1.4-.8-2.1-.3c-2.3 1.7-5.3 2.5-9 2.5-3.8 0-6.7-.8-9.1-2.5-.7-.5-1.6-.3-2.1.3-.6.7-.4 1.6.3 2.1z"/><path d="m59.1 85c-2.7 1.9-6.1 2.2-9 2.2-4.2 0-6.9-.7-9.1-2.3-.7-.5-1.6-.3-2.1.3-.5.7-.3 1.6.3 2.1 1.6 1.1 3.2 1.8 4.9 2.2.3 3 2.9 5.4 6 5.4s5.7-2.4 6-5.4c1.7-.4 3.3-1.1 4.8-2.2.7-.5.8-1.4.3-2.1s-1.5-.7-2.1-.2zm-9.1 7c-1.3 0-2.3-.8-2.8-1.9.9.1 1.9.1 2.8.1s1.8 0 2.8-.1c-.4 1.1-1.5 1.9-2.8 1.9z"/><path d="m48.9 27.3c-.1-.8-.9-1.4-1.7-1.2-4.6.8-8.2 3-11.4 7.1-.5.7-.4 1.6.2 2.1.3.2.6.3.9.3.4 0 .9-.2 1.2-.6 2.7-3.4 5.7-5.3 9.6-6 .8-.2 1.3-.9 1.2-1.7z"/><path d="m48 14.9c0 .5.2 1 .6 1.4s.9.6 1.4.6 1-.2 1.4-.6.6-.9.6-1.4-.2-1.1-.6-1.4c-.3-.3-.8-.5-1.2-.5 1-.1 1.8-.9 1.8-2 0-1-.7-1.8-1.7-2 .4-.1.8-.3 1.1-.6.4-.4.6-.9.6-1.4s-.2-1-.6-1.4c-.7-.8-2.1-.8-2.8 0-.4.4-.6.9-.6 1.4s.2 1 .6 1.4c.3.3.7.5 1.1.6-1 .1-1.7 1-1.7 2s.8 1.9 1.8 2c-.5 0-.9.2-1.2.5-.4.3-.6.8-.6 1.4z"/><path d="m29.3 15.1c.3 0 .6-.1.8-.2-.7.6-.9 1.7-.3 2.6.4.6 1 .9 1.7.9.3 0 .6-.1.9-.2 0 0-.1.1-.1.1-.4.4-.6.9-.6 1.4s.2 1 .6 1.4.9.6 1.4.6 1-.2 1.4-.6.6-.9.6-1.4-.2-1-.6-1.4c-.6-.6-1.5-.7-2.3-.4.7-.6.9-1.7.4-2.6-.6-.8-1.6-1.1-2.5-.7 0 0 .1 0 .1-.1.4-.4.6-.9.6-1.4s-.2-1-.6-1.4c-.8-.7-2.1-.7-2.8 0-.4.4-.6.9-.6 1.4s.2 1 .6 1.4c.3.4.8.6 1.3.6z"/><path d="m15.4 31.5c.5 0 1-.2 1.4-.6.1-.1.2-.2.3-.3-.2.9.2 1.9 1.1 2.3.3.1.5.2.8.2.7 0 1.3-.4 1.7-1-.1.2-.1.4-.1.6 0 .5.2 1.1.6 1.4.4.4.9.6 1.4.6s1-.2 1.4-.6.6-.9.6-1.4-.2-1-.6-1.4c-.8-.8-2.1-.8-2.8 0-.1.1-.2.2-.3.3.2-.9-.2-1.9-1.1-2.3s-2-.1-2.5.7c0-.2.1-.3.1-.5 0-.5-.2-1-.6-1.4-.7-.8-2.1-.8-2.8 0-.4.4-.6.9-.6 1.4s.2 1 .6 1.4c.3.4.8.6 1.4.6z"/><path d="m20.3 51.6c.5 0 1-.2 1.4-.6s.6-.9.6-1.4-.2-1-.6-1.4c-.8-.7-2.1-.7-2.8 0-.4.4-.6.9-.6 1.4-.3-.9-1.2-1.5-2.2-1.3s-1.7 1-1.7 2c-.1-.3-.3-.6-.5-.8-.8-.8-2.1-.8-2.8 0-.4.4-.6.9-.6 1.4s.2 1 .6 1.4.9.6 1.4.6 1-.2 1.4-.6.6-.8.6-1.4c.3.8 1 1.3 1.9 1.3h.3c1-.2 1.7-1 1.7-2 .1.3.3.6.5.8.4.4.9.6 1.4.6z"/><path d="m26.3 63.6c-.4.4-.6.9-.6 1.4 0 .4.1.8.3 1.1-.8-.6-1.8-.6-2.6.1s-.9 1.8-.3 2.6c-.8-.6-2-.6-2.7.1-.4.4-.6.9-.6 1.4s.2 1 .6 1.4.9.6 1.4.6 1-.2 1.4-.6.6-.9.6-1.4c0-.4-.1-.8-.3-1.1.4.3.8.5 1.3.5s.9-.2 1.3-.5c.7-.7.9-1.8.3-2.6.4.3.8.5 1.3.5s1-.2 1.4-.6.6-.9.6-1.4-.2-1-.6-1.4c-.7-.8-2.1-.8-2.8-.1z"/><path d="m66.3 21.7c.5 0 1-.2 1.4-.6s.6-.9.6-1.4-.2-1-.6-1.4c0 0-.1-.1-.1-.1.3.1.6.2.9.2.7 0 1.3-.3 1.7-.9.5-.8.4-1.9-.4-2.6.3.1.5.2.8.2.5 0 1-.2 1.4-.6s.6-.9.6-1.4-.2-1-.6-1.4c-.7-.8-2.1-.8-2.8 0-.4.4-.6.9-.6 1.4s.2 1 .6 1.4c0 0 .1 0 .1.1-.9-.4-1.9-.1-2.5.7s-.4 2 .4 2.6c-.7-.3-1.7-.2-2.3.4-.4.4-.6.9-.6 1.4s.2 1 .6 1.4.9.6 1.4.6z"/><path d="m77.4 34.6c.5 0 1-.2 1.4-.6s.6-.9.6-1.4c0-.2 0-.4-.1-.6.4.6 1 1 1.7 1 .3 0 .5 0 .8-.2.9-.4 1.4-1.4 1.1-2.3.1.1.2.2.2.3.4.4.9.6 1.4.6s1-.2 1.4-.6.6-.9.6-1.4-.2-1-.6-1.4c-.8-.7-2.1-.7-2.8 0-.4.4-.6.9-.6 1.4 0 .2 0 .4.1.5-.5-.8-1.6-1.2-2.5-.8s-1.4 1.4-1.1 2.3c-.1-.1-.2-.2-.2-.3-.8-.8-2.1-.8-2.8 0-.4.4-.6.9-.6 1.4s.2 1 .6 1.4c.4.5.9.7 1.4.7z"/><path d="m88.8 49.4c-.7-.8-2.1-.8-2.8 0-.2.2-.4.5-.5.8 0-1-.7-1.8-1.7-2s-1.9.4-2.2 1.4c0-.5-.2-1-.6-1.4-.8-.7-2.1-.7-2.8 0-.4.4-.6.9-.6 1.4s.2 1 .6 1.4.9.6 1.4.6 1-.2 1.4-.6c.2-.2.4-.5.5-.8 0 1 .7 1.8 1.7 2h.3c.9 0 1.6-.5 1.9-1.3 0 .5.2 1 .6 1.4s.9.6 1.4.6 1-.2 1.4-.6.6-.9.6-1.4c0-.6-.2-1.1-.6-1.5z"/><path d="m76.9 68.7c.6-.8.5-1.9-.3-2.6-.7-.7-1.8-.7-2.6-.1.2-.3.3-.7.3-1.1 0-.5-.2-1-.6-1.4-.7-.7-2.1-.7-2.8 0-.4.4-.6.9-.6 1.4s.2 1 .6 1.4.9.6 1.4.6.9-.2 1.3-.5c-.5.8-.4 1.9.3 2.6.4.3.9.5 1.3.5s.9-.2 1.3-.5c-.2.3-.3.7-.3 1.1 0 .5.2 1 .6 1.4s.9.6 1.4.6 1-.2 1.4-.6.6-.9.6-1.4-.2-1-.6-1.4c-.7-.6-1.9-.6-2.7 0z"/></svg>