<?xml version="1.0" standalone="no"?>
<!DOCTYPE svg PUBLIC "-//W3C//DTD SVG 20010904//EN"
 "http://www.w3.org/TR/2001/REC-SVG-20010904/DTD/svg10.dtd">
<svg version="1.0" xmlns="http://www.w3.org/2000/svg"
 width="15.000000pt" height="15.000000pt" viewBox="0 0 15.000000 15.000000"
 preserveAspectRatio="xMidYMid meet">

<g transform="translate(0.000000,200.000000) scale(0.100000,-0.100000)"
fill="#000000" stroke="none">
<path d="M1650 1839 c-157 -60 -327 -126 -378 -146 l-94 -36 62 -62 c34 -35
61 -68 59 -74 -6 -16 -649 -681 -660 -681 -14 0 -179 142 -179 154 0 9 153
271 166 285 1 2 40 -18 84 -44 44 -26 82 -46 84 -44 2 2 -7 159 -20 349 -13
190 -23 356 -24 370 -1 24 -1 25 -16 5 -27 -36 -604 -1003 -604 -1013 0 -6 16
-19 36 -31 49 -29 179 -129 239 -184 l50 -46 -70 -73 c-38 -40 -131 -135 -205
-211 l-135 -137 87 -87 86 -86 208 201 c114 111 211 202 216 202 13 0 137
-151 198 -242 l58 -86 517 310 c284 170 515 311 513 313 -2 2 -147 13 -323 24
-176 12 -341 23 -367 25 -27 3 -48 2 -48 -2 0 -4 20 -41 45 -82 35 -59 42 -77
32 -87 -19 -19 -260 -163 -272 -163 -13 0 -155 165 -155 179 0 5 123 128 273
274 343 334 400 386 412 387 6 0 37 -27 69 -60 32 -33 60 -59 62 -58 1 2 66
167 143 368 76 201 143 373 146 383 4 9 3 17 -1 16 -5 0 -137 -50 -294 -110z
m159 -161 c-11 -29 -50 -125 -86 -213 -36 -88 -69 -171 -75 -184 l-9 -25 -25
25 -24 25 116 212 c64 117 118 212 120 212 2 0 -6 -24 -17 -52z m-1057 -341
c1 -48 1 -87 -2 -87 -3 0 -14 8 -26 18 -21 17 -21 19 -8 167 7 83 14 164 15
180 2 34 16 -145 21 -278z m893 -726 c-6 -4 -116 -69 -245 -144 -129 -74 -289
-167 -355 -205 l-120 -70 -17 26 -18 27 376 188 c207 103 379 187 382 187 3 0
2 -4 -3 -9z"/>
</g>
</svg>
