<svg xmlns:dc="http://purl.org/dc/elements/1.1/" xmlns:cc="http://creativecommons.org/ns#" xmlns:rdf="http://www.w3.org/1999/02/22-rdf-syntax-ns#" xmlns:svg="http://www.w3.org/2000/svg" xmlns="http://www.w3.org/2000/svg" version="1.1" viewBox="0 0 100.00001 125" xml:space="preserve" x="0px" y="0px"><path d="m 25.78125,10.65625 c -1.19804,0.03338 -2.390296,0.356511 -3.5,1 -3.551054,2.059166 -4.777916,6.605196 -2.71875,10.15625 2.059166,3.551054 6.605196,4.777916 10.15625,2.71875 0.456937,-0.264966 0.872582,-0.566293 1.25,-0.90625 L 42.875,32.46875 C 42.772399,32.203681 42.664544,31.93552 42.59375,31.65625 42.216704,30.661228 42.377068,29.665063 42.625,28.6875 l -9.9375,-7.34375 c 1.040295,-2.147247 1.036979,-4.749341 -0.25,-6.96875 -1.415677,-2.441349 -4.020561,-3.792192 -6.65625,-3.71875 z M 79.6875,13.75 c -1.19804,0.03338 -2.421546,0.356511 -3.53125,1 -3.09834,1.796649 -4.395139,5.479306 -3.3125,8.75 l -11.125,6.65625 c -0.01921,1.463022 -0.639159,2.857354 -1.375,4.1875 L 74.25,26 c 2.284876,2.676533 6.222001,3.422095 9.375,1.59375 3.551054,-2.059166 4.746666,-6.605196 2.6875,-10.15625 -1.415677,-2.441349 -3.989311,-3.760942 -6.625,-3.6875 z m -27.625,6.0625 c -6.491611,0 -6.40625,5.65625 -6.40625,5.65625 L 45.59375,28.5 c -0.530352,-0.0072 -0.65625,0.514594 -0.65625,1.5625 0,1.570663 0.973035,3.213529 1.84375,4.0625 0.295074,1.234764 0.866408,2.327458 1.625,3.15625 -0.02641,0.0162 -0.06722,0.01506 -0.09375,0.03125 -2.587069,1.578079 -5.672508,2.649945 -7.6875,3.71875 C 40.069304,41.32573 39.480223,41.842316 39,42.5 c -0.32697,0.452412 -0.598878,0.935264 -0.84375,1.4375 -0.009,0.01782 -0.0225,0.04466 -0.03125,0.0625 -0.0335,0.0697 -0.06169,0.148406 -0.09375,0.21875 -0.48672,1.041571 -0.840864,2.134504 -1.03125,3.25 -0.004,0.02072 0.0038,0.04182 0,0.0625 -0.0086,0.05238 -0.02313,0.10387 -0.03125,0.15625 -0.03411,0.193194 -0.06636,0.403903 -0.09375,0.59375 -0.02338,0.156384 -0.04306,0.493278 -0.03125,0.65625 -0.0018,0.0099 9e-4,0.02135 0,0.03125 -0.07182,1.018098 1.84375,1.34375 1.84375,1.34375 0.715321,0.211536 2.029012,0.44187 3.625,0.65625 2.847115,0.46989 5.761037,0.630802 8.625,0.71875 0.277992,0.0086 0.572546,-0.0011 0.875,0 l 0.03125,0 c 0.150498,0 0.31314,0.0018 0.46875,0 0.302454,-0.0018 0.59699,0.0086 0.875,0 2.862703,-0.08791 5.779109,-0.249346 8.625,-0.71875 1.598346,-0.21456 2.908924,-0.444498 3.625,-0.65625 0,0 1.915552,-0.325652 1.84375,-1.34375 -0.0018,-0.0099 9e-4,-0.02133 0,-0.03125 0.01188,-0.162972 -0.0079,-0.499866 -0.03125,-0.65625 -0.03917,-0.271261 -0.103166,-0.566172 -0.15625,-0.84375 -0.210852,-1.219968 -0.58763,-2.440343 -1.15625,-3.5625 -0.0063,-0.0126 0.0065,-0.01868 0,-0.03125 C 65.70314,43.374274 65.432062,42.924872 65.125,42.5 64.644778,41.842316 64.055696,41.32573 63.5,41.03125 61.485008,39.962445 58.399551,38.890579 55.8125,37.3125 c -0.02651,-0.0162 -0.06734,-0.01497 -0.09375,-0.03125 0.75861,-0.828792 1.329925,-1.921486 1.625,-3.15625 0.870714,-0.848971 1.8125,-2.491837 1.8125,-4.0625 0,-1.047906 -0.12588,-1.569664 -0.65625,-1.5625 l -0.03125,-3.03125 c 0,0 0.08537,-5.65625 -6.40625,-5.65625 z M 38.59375,39.46875 19.21875,44.3125 C 19.115362,44.083622 19.003698,43.846941 18.875,43.625 16.815834,40.073946 12.269804,38.878334 8.71875,40.9375 5.1676963,42.996666 3.9408337,47.542696 6,51.09375 c 2.0591663,3.551054 6.605196,4.746666 10.15625,2.6875 2.450927,-1.42123 3.803575,-4.041145 3.71875,-6.6875 l 15.84375,-3.9375 c 0.07438,-0.159517 0.172762,-0.313302 0.25,-0.46875 0.603648,-1.339254 1.514598,-2.380579 2.625,-3.21875 z m 31.125,7.78125 c 0.20349,1.074546 0.137248,2.244139 -0.3125,3.21875 l 11.3125,7.34375 c -0.855939,2.066285 -0.802327,4.478297 0.40625,6.5625 2.059166,3.551054 6.605196,4.777916 10.15625,2.71875 C 94.832304,65.034584 96.059166,60.488554 94,56.9375 91.940834,53.386446 87.394804,52.159584 83.84375,54.21875 c -0.574435,0.3331 -1.08329,0.738901 -1.53125,1.1875 L 69.71875,47.25 z m -25.3125,6.5 -7.96875,20.84375 c -1.689316,-0.317982 -3.52127,-0.05496 -5.125,0.875 -3.551054,2.059166 -4.746666,6.605196 -2.6875,10.15625 2.059166,3.551054 6.605196,4.777916 10.15625,2.71875 3.551054,-2.059166 4.777916,-6.605196 2.71875,-10.15625 -0.607794,-1.048147 -1.45443,-1.883708 -2.40625,-2.5 l 8.3125,-21.65625 c -0.996859,-0.07277 -2.0091,-0.172782 -3,-0.28125 z" transform="translate(0,-5e-6)" style="" fill="#000000" fill-opacity="1" fill-rule="nonzero" stroke="none"/></svg>
