<svg xmlns="http://www.w3.org/2000/svg" xmlns:xlink="http://www.w3.org/1999/xlink" version="1.1" x="0px" y="0px" viewBox="0 0 100 125" enable-background="new 0 0 100 100" xml:space="preserve"><g display="none"><path display="inline" fill="none" stroke="#000000" stroke-width="2.2409" stroke-linecap="round" d="M50,80.2   c3.8,0,10.7-2,10.7-5.5c0-9.4,11.5-14.5,11.5-28.5c0-12.7-8.8-22.8-22.2-22.8S27.8,33.5,27.8,46.2c0,14.1,11.5,19.1,11.5,28.5   C39.3,78.3,46.2,80.2,50,80.2z"/><path display="inline" fill="none" stroke="#000000" stroke-width="2.2409" stroke-linecap="round" d="M60,81.1   c-2.8,2-6.2,3.1-9.9,3.1c-3.7,0-7.1-1.1-10-3.1"/><path display="inline" fill="none" stroke="#000000" stroke-width="2.2409" stroke-linecap="round" d="M60,85.1   c-2.8,2-6.2,2.8-9.9,2.8c-3.7,0-7.1-0.8-10-2.8"/><path display="inline" fill="none" stroke="#000000" stroke-width="2.2409" stroke-linecap="round" d="M60,89.1   c-2.8,2-6.2,2.5-9.9,2.5c-3.7,0-7.1-0.5-10-2.5"/><path display="inline" fill="none" stroke="#000000" stroke-width="2.2409" stroke-linecap="round" d="M46.9,91.8   c0,1.7,1.4,3.2,3.2,3.2c1.7,0,3.2-1.4,3.2-3.2"/><path display="inline" fill="none" stroke="#000000" stroke-width="2.2409" stroke-linecap="round" d="M46.4,28   c-4.6,0.8-7.8,3.2-10.5,6.5"/><g display="inline"><g><line fill="none" stroke="#000000" stroke-width="2.9879" stroke-linecap="round" x1="50" y1="16.3" x2="50" y2="16.3"/><line fill="none" stroke="#000000" stroke-width="2.9879" stroke-linecap="round" stroke-dasharray="0,2.8372" x1="50" y1="13.5" x2="50" y2="6.4"/><line fill="none" stroke="#000000" stroke-width="2.9879" stroke-linecap="round" x1="50" y1="5" x2="50" y2="5"/></g></g><g display="inline"><g><line fill="none" stroke="#000000" stroke-width="2.9879" stroke-linecap="round" x1="33.5" y1="21.4" x2="33.5" y2="21.4"/><line fill="none" stroke="#000000" stroke-width="2.9879" stroke-linecap="round" stroke-dasharray="0,2.8372" x1="31.9" y1="19" x2="28" y2="13.1"/><line fill="none" stroke="#000000" stroke-width="2.9879" stroke-linecap="round" x1="27.2" y1="11.9" x2="27.2" y2="11.9"/></g></g><g display="inline"><g><line fill="none" stroke="#000000" stroke-width="2.9879" stroke-linecap="round" x1="22.6" y1="34.7" x2="22.6" y2="34.7"/><line fill="none" stroke="#000000" stroke-width="2.9879" stroke-linecap="round" stroke-dasharray="0,2.8372" x1="19.9" y1="33.6" x2="13.4" y2="30.9"/><line fill="none" stroke="#000000" stroke-width="2.9879" stroke-linecap="round" x1="12.1" y1="30.4" x2="12.1" y2="30.4"/></g></g><g display="inline"><g><line fill="none" stroke="#000000" stroke-width="2.9879" stroke-linecap="round" x1="20.9" y1="51.9" x2="20.9" y2="51.9"/><line fill="none" stroke="#414141" stroke-width="2.9879" stroke-linecap="round" stroke-dasharray="0,2.8372" x1="18.1" y1="52.4" x2="11.2" y2="53.8"/><line fill="none" stroke="#000000" stroke-width="2.9879" stroke-linecap="round" x1="9.8" y1="54.1" x2="9.8" y2="54.1"/></g></g><g display="inline"><g><line fill="none" stroke="#000000" stroke-width="2.9879" stroke-linecap="round" x1="29" y1="67" x2="29" y2="67"/><line fill="none" stroke="#000000" stroke-width="2.9879" stroke-linecap="round" stroke-dasharray="0,2.8372" x1="27" y1="69" x2="22" y2="74.1"/><line fill="none" stroke="#000000" stroke-width="2.9879" stroke-linecap="round" x1="21" y1="75.1" x2="21" y2="75.1"/></g></g><g display="inline"><g><line fill="none" stroke="#000000" stroke-width="2.9879" stroke-linecap="round" x1="66.5" y1="21.4" x2="66.5" y2="21.4"/><line fill="none" stroke="#000000" stroke-width="2.9879" stroke-linecap="round" stroke-dasharray="0,2.8372" x1="68.1" y1="19" x2="72" y2="13.1"/><line fill="none" stroke="#000000" stroke-width="2.9879" stroke-linecap="round" x1="72.8" y1="11.9" x2="72.8" y2="11.9"/></g></g><g display="inline"><g><line fill="none" stroke="#000000" stroke-width="2.9879" stroke-linecap="round" x1="77.4" y1="34.7" x2="77.4" y2="34.7"/><line fill="none" stroke="#000000" stroke-width="2.9879" stroke-linecap="round" stroke-dasharray="0,2.8372" x1="80.1" y1="33.6" x2="86.6" y2="30.9"/><line fill="none" stroke="#000000" stroke-width="2.9879" stroke-linecap="round" x1="87.9" y1="30.4" x2="87.9" y2="30.4"/></g></g><g display="inline"><g><line fill="none" stroke="#000000" stroke-width="2.9879" stroke-linecap="round" x1="79.1" y1="51.9" x2="79.1" y2="51.9"/><line fill="none" stroke="#000000" stroke-width="2.9879" stroke-linecap="round" stroke-dasharray="0,2.8372" x1="81.9" y1="52.4" x2="88.8" y2="53.8"/><line fill="none" stroke="#000000" stroke-width="2.9879" stroke-linecap="round" x1="90.2" y1="54.1" x2="90.2" y2="54.1"/></g></g><g display="inline"><g><line fill="none" stroke="#000000" stroke-width="2.9879" stroke-linecap="round" x1="71" y1="67" x2="71" y2="67"/><line fill="none" stroke="#000000" stroke-width="2.9879" stroke-linecap="round" stroke-dasharray="0,2.8372" x1="73" y1="69" x2="78" y2="74.1"/><line fill="none" stroke="#000000" stroke-width="2.9879" stroke-linecap="round" x1="79" y1="75.1" x2="79" y2="75.1"/></g></g></g><g display="none"><path display="inline" stroke="#000000" stroke-width="3" stroke-linecap="round" d="M50,78.7c3.8,0,10.7-2,10.7-5.5   c0-9.4,11.5-14.5,11.5-28.5c0-12.7-8.8-22.8-22.2-22.8S27.8,32,27.8,44.6c0,14.1,11.5,19.1,11.5,28.5C39.3,76.8,46.2,78.7,50,78.7z   "/><path display="inline" fill="none" stroke="#000000" stroke-width="3" stroke-linecap="round" d="M60,80.9c-2.8,2-6.2,2.8-9.9,2.8   c-3.7,0-7.1-0.8-10-2.8"/><path display="inline" fill="none" stroke="#000000" stroke-width="3" stroke-linecap="round" d="M60,86.2c-2.8,2-6.2,2.5-9.9,2.5   c-3.7,0-7.1-0.5-10-2.5"/><path display="inline" fill="none" stroke="#000000" stroke-width="3" stroke-linecap="round" d="M45.5,89c0,2.5,2,4.5,4.5,4.5   c2.5,0,4.5-2,4.5-4.5"/><path display="inline" fill="#000000" stroke="#FFFFFF" stroke-width="3" stroke-linecap="round" d="M47.4,27.5   c-4.6,0.8-7.8,3.2-10.5,6.5"/></g><g display="none"><path display="inline" stroke="#000000" stroke-width="3" stroke-linecap="round" d="M50,78.7c3.8,0,10.7-2,10.7-5.5   c0-9.4,11.5-14.5,11.5-28.5c0-12.7-8.8-22.8-22.2-22.8S27.8,32,27.8,44.6c0,14.1,11.5,19.1,11.5,28.5C39.3,76.8,46.2,78.7,50,78.7z   "/><path display="inline" fill="none" stroke="#000000" stroke-width="3" stroke-linecap="round" d="M60,80.9c-2.8,2-6.2,2.8-9.9,2.8   c-3.7,0-7.1-0.8-10-2.8"/><path display="inline" fill="none" stroke="#000000" stroke-width="3" stroke-linecap="round" d="M60,86.2c-2.8,2-6.2,2.5-9.9,2.5   c-3.7,0-7.1-0.5-10-2.5"/><path display="inline" fill="none" stroke="#000000" stroke-width="3" stroke-linecap="round" d="M45.5,89c0,2.5,2,4.5,4.5,4.5   c2.5,0,4.5-2,4.5-4.5"/><path display="inline" fill="#000000" stroke="#FFFFFF" stroke-width="3" stroke-linecap="round" d="M47.4,27.5   c-4.6,0.8-7.8,3.2-10.5,6.5"/><g display="inline"><path fill="#000000" d="M50,26.3c10.3,0,17.7,7.7,17.7,18.3c0,6.3-2.8,10.4-5.8,14.7c-2.7,3.9-5.5,7.9-5.7,13.2    c-0.9,0.7-3.7,1.7-6.2,1.7c-2.5,0-5.3-1-6.2-1.7c-0.2-5.3-3-9.3-5.7-13.2c-3-4.3-5.8-8.4-5.8-14.7C32.3,34,39.7,26.3,50,26.3     M50,23.3c-12,0-20.7,9-20.7,21.3c0,7.3,3.2,11.9,6.4,16.4c2.7,3.8,5.2,7.4,5.2,12.1c0,2,5.3,4,9.2,4c3.9,0,9.2-2,9.2-4    c0-4.7,2.5-8.3,5.2-12.1c3.1-4.5,6.4-9.1,6.4-16.4C70.7,32.3,62,23.3,50,23.3L50,23.3z"/></g></g><g display="none"><path display="inline" fill="none" stroke="#000000" stroke-width="3" stroke-linecap="round" d="M50,78.7c3.8,0,10.7-2,10.7-5.5   c0-9.4,11.5-14.5,11.5-28.5c0-12.7-8.8-22.8-22.2-22.8S27.8,32,27.8,44.6c0,14.1,11.5,19.1,11.5,28.5C39.3,76.8,46.2,78.7,50,78.7z   "/><path display="inline" fill="none" stroke="#000000" stroke-width="3" stroke-linecap="round" d="M60,80.9c-2.8,2-6.2,2.8-9.9,2.8   c-3.7,0-7.1-0.8-10-2.8"/><path display="inline" fill="none" stroke="#000000" stroke-width="3" stroke-linecap="round" d="M60,86.2c-2.8,2-6.2,2.5-9.9,2.5   c-3.7,0-7.1-0.5-10-2.5"/><path display="inline" fill="none" stroke="#000000" stroke-width="3" stroke-linecap="round" d="M45.5,89c0,2.5,2,4.5,4.5,4.5   c2.5,0,4.5-2,4.5-4.5"/><path display="inline" fill="none" stroke="#000000" stroke-width="3" stroke-linecap="round" d="M47.4,27.5   c-4.6,0.8-7.8,3.2-10.5,6.5"/></g><g display="none"><g display="inline"><g><line fill="none" stroke="#000000" stroke-width="4" stroke-linecap="round" x1="50" y1="14.9" x2="50" y2="14.9"/><line fill="none" stroke="#000000" stroke-width="4" stroke-linecap="round" stroke-dasharray="0,3.9378" x1="50" y1="10.9" x2="50" y2="9"/><line fill="none" stroke="#000000" stroke-width="4" stroke-linecap="round" x1="50" y1="7" x2="50" y2="7"/></g></g><g display="inline"><g><line fill="none" stroke="#000000" stroke-width="4" stroke-linecap="round" x1="33.6" y1="19.7" x2="33.6" y2="19.7"/><line fill="none" stroke="#000000" stroke-width="4" stroke-linecap="round" stroke-dasharray="0,3.9378" x1="31.5" y1="16.4" x2="30.4" y2="14.8"/><line fill="none" stroke="#000000" stroke-width="4" stroke-linecap="round" x1="29.3" y1="13.1" x2="29.3" y2="13.1"/></g></g><g display="inline"><g><line fill="none" stroke="#000000" stroke-width="4" stroke-linecap="round" x1="22.6" y1="32.7" x2="22.6" y2="32.7"/><line fill="none" stroke="#000000" stroke-width="4" stroke-linecap="round" stroke-dasharray="0,3.9378" x1="19" y1="31.1" x2="17.2" y2="30.3"/><line fill="none" stroke="#000000" stroke-width="4" stroke-linecap="round" x1="15.4" y1="29.5" x2="15.4" y2="29.5"/></g></g><g display="inline"><g><line fill="none" stroke="#000000" stroke-width="4" stroke-linecap="round" x1="20.4" y1="49.6" x2="20.4" y2="49.6"/><line fill="none" stroke="#000000" stroke-width="4" stroke-linecap="round" stroke-dasharray="0,3.9378" x1="16.5" y1="50.3" x2="14.5" y2="50.6"/><line fill="none" stroke="#000000" stroke-width="4" stroke-linecap="round" x1="12.6" y1="50.9" x2="12.6" y2="50.9"/></g></g><g display="inline"><g><line fill="none" stroke="#000000" stroke-width="4" stroke-linecap="round" x1="27.7" y1="65" x2="27.7" y2="65"/><line fill="none" stroke="#000000" stroke-width="4" stroke-linecap="round" stroke-dasharray="0,3.9378" x1="24.8" y1="67.7" x2="23.3" y2="69"/><line fill="none" stroke="#000000" stroke-width="4" stroke-linecap="round" x1="21.9" y1="70.3" x2="21.9" y2="70.3"/></g></g><g display="inline"><g><line fill="none" stroke="#000000" stroke-width="4" stroke-linecap="round" x1="66.3" y1="19.7" x2="66.3" y2="19.7"/><line fill="none" stroke="#000000" stroke-width="4" stroke-linecap="round" stroke-dasharray="0,3.9378" x1="68.5" y1="16.4" x2="69.5" y2="14.7"/><line fill="none" stroke="#000000" stroke-width="4" stroke-linecap="round" x1="70.6" y1="13.1" x2="70.6" y2="13.1"/></g></g><g display="inline"><g><line fill="none" stroke="#000000" stroke-width="4" stroke-linecap="round" x1="77.4" y1="32.7" x2="77.4" y2="32.7"/><line fill="none" stroke="#000000" stroke-width="4" stroke-linecap="round" stroke-dasharray="0,3.9378" x1="81" y1="31.1" x2="82.8" y2="30.2"/><line fill="none" stroke="#000000" stroke-width="4" stroke-linecap="round" x1="84.6" y1="29.4" x2="84.6" y2="29.4"/></g></g><g display="inline"><g><line fill="none" stroke="#000000" stroke-width="4" stroke-linecap="round" x1="79.7" y1="49.6" x2="79.7" y2="49.6"/><line fill="none" stroke="#000000" stroke-width="4" stroke-linecap="round" stroke-dasharray="0,3.9378" x1="83.6" y1="50.2" x2="85.5" y2="50.5"/><line fill="none" stroke="#000000" stroke-width="4" stroke-linecap="round" x1="87.4" y1="50.8" x2="87.4" y2="50.8"/></g></g><g display="inline"><g><line fill="none" stroke="#000000" stroke-width="4" stroke-linecap="round" x1="72.3" y1="65" x2="72.3" y2="65"/><line fill="none" stroke="#000000" stroke-width="4" stroke-linecap="round" stroke-dasharray="0,3.9378" x1="75.3" y1="67.6" x2="76.7" y2="68.9"/><line fill="none" stroke="#000000" stroke-width="4" stroke-linecap="round" x1="78.2" y1="70.2" x2="78.2" y2="70.2"/></g></g></g><g display="none"><path display="inline" stroke="#000000" stroke-width="3" stroke-linecap="round" d="M50,78.7c3.8,0,10.7-2,10.7-5.5   c0-9.4,11.5-14.5,11.5-28.5c0-12.7-8.8-22.8-22.2-22.8S27.8,32,27.8,44.6c0,14.1,11.5,19.1,11.5,28.5C39.3,76.8,46.2,78.7,50,78.7z   "/><path display="inline" fill="none" stroke="#000000" stroke-width="3" stroke-linecap="round" d="M60,80.9c-2.8,2-6.2,2.8-9.9,2.8   c-3.7,0-7.1-0.8-10-2.8"/><path display="inline" fill="none" stroke="#000000" stroke-width="3" stroke-linecap="round" d="M60,86.2c-2.8,2-6.2,2.5-9.9,2.5   c-3.7,0-7.1-0.5-10-2.5"/><path display="inline" fill="none" stroke="#000000" stroke-width="3" stroke-linecap="round" d="M45.5,89c0,2.5,2,4.5,4.5,4.5   c2.5,0,4.5-2,4.5-4.5"/><path display="inline" fill="#000000" stroke="#FFFFFF" stroke-width="3" stroke-linecap="round" d="M47.4,27.5   c-4.6,0.8-7.8,3.2-10.5,6.5"/></g><g display="none"><path display="inline" d="M50,85.2c-4.4,0-8-1-10.9-3.1c-0.7-0.5-0.8-1.4-0.3-2.1c0.5-0.7,1.4-0.8,2.1-0.3c2.4,1.7,5.3,2.5,9.1,2.5   c3.7,0,6.7-0.8,9-2.5c0.7-0.5,1.6-0.3,2.1,0.3c0.5,0.7,0.3,1.6-0.3,2.1C58,84.2,54.4,85.2,50,85.2z"/><path display="inline" d="M61.2,85.4c-0.5-0.7-1.4-0.8-2.1-0.3c-2.7,1.9-6.1,2.2-9,2.2c-4.2,0-6.9-0.7-9.1-2.3   c-0.7-0.5-1.6-0.3-2.1,0.3c-0.5,0.7-0.3,1.6,0.3,2.1c1.6,1.1,3.2,1.8,4.9,2.2c0.3,3,2.9,5.4,6,5.4c3.1,0,5.7-2.4,6-5.4   c1.7-0.4,3.3-1.1,4.8-2.2C61.5,87,61.7,86,61.2,85.4z M50,92c-1.3,0-2.3-0.8-2.8-1.9c0.9,0.1,1.9,0.1,2.8,0.1c0.9,0,1.8,0,2.8-0.1   C52.4,91.2,51.3,92,50,92z"/><path display="inline" d="M50,20.3c-13.8,0-23.7,10.2-23.7,24.3c0,8.2,3.7,13.5,6.9,18.1c2.5,3.6,4.6,6.7,4.6,10.4   c0,4.9,8.1,7,12.2,7c4.1,0,12.2-2.1,12.2-7c0-3.8,2.2-6.9,4.6-10.4c3.2-4.6,6.9-9.9,6.9-18.1C73.7,30.6,63.8,20.3,50,20.3z    M47.6,29c-3.9,0.7-6.8,2.5-9.6,6c-0.3,0.4-0.7,0.6-1.2,0.6c-0.3,0-0.7-0.1-0.9-0.3c-0.6-0.5-0.8-1.5-0.2-2.1   c3.2-4,6.8-6.3,11.4-7.1c0.8-0.1,1.6,0.4,1.7,1.2C49,28.1,48.5,28.8,47.6,29z"/></g><g display="none"><path display="inline" fill="none" stroke="#000000" stroke-width="3" stroke-linecap="round" d="M50,78.7c3.8,0,10.7-2,10.7-5.5   c0-9.4,11.5-14.5,11.5-28.5c0-12.7-8.8-22.8-22.2-22.8S27.8,32,27.8,44.6c0,14.1,11.5,19.1,11.5,28.5C39.3,76.8,46.2,78.7,50,78.7z   "/><path display="inline" fill="none" stroke="#000000" stroke-width="3" stroke-linecap="round" d="M60,80.9c-2.8,2-6.2,2.8-9.9,2.8   c-3.7,0-7.1-0.8-10-2.8"/><path display="inline" fill="none" stroke="#000000" stroke-width="3" stroke-linecap="round" d="M60,86.2c-2.8,2-6.2,2.5-9.9,2.5   c-3.7,0-7.1-0.5-10-2.5"/><path display="inline" fill="none" stroke="#000000" stroke-width="3" stroke-linecap="round" d="M45.5,89c0,2.5,2,4.5,4.5,4.5   c2.5,0,4.5-2,4.5-4.5"/><path display="inline" fill="none" stroke="#000000" stroke-width="3" stroke-linecap="round" d="M47.4,27.5   c-4.6,0.8-7.8,3.2-10.5,6.5"/><g display="inline"><g><line fill="none" stroke="#000000" stroke-width="4" stroke-linecap="round" x1="50" y1="14.9" x2="50" y2="14.9"/><line fill="none" stroke="#000000" stroke-width="4" stroke-linecap="round" stroke-dasharray="0,3.9378" x1="50" y1="10.9" x2="50" y2="9"/><line fill="none" stroke="#000000" stroke-width="4" stroke-linecap="round" x1="50" y1="7" x2="50" y2="7"/></g></g><g display="inline"><g><line fill="none" stroke="#000000" stroke-width="4" stroke-linecap="round" x1="33.6" y1="19.7" x2="33.6" y2="19.7"/><line fill="none" stroke="#000000" stroke-width="4" stroke-linecap="round" stroke-dasharray="0,3.9378" x1="31.5" y1="16.4" x2="30.4" y2="14.8"/><line fill="none" stroke="#000000" stroke-width="4" stroke-linecap="round" x1="29.3" y1="13.1" x2="29.3" y2="13.1"/></g></g><g display="inline"><g><line fill="none" stroke="#000000" stroke-width="4" stroke-linecap="round" x1="22.6" y1="32.7" x2="22.6" y2="32.7"/><line fill="none" stroke="#000000" stroke-width="4" stroke-linecap="round" stroke-dasharray="0,3.9378" x1="19" y1="31.1" x2="17.2" y2="30.3"/><line fill="none" stroke="#000000" stroke-width="4" stroke-linecap="round" x1="15.4" y1="29.5" x2="15.4" y2="29.5"/></g></g><g display="inline"><g><line fill="none" stroke="#000000" stroke-width="4" stroke-linecap="round" x1="20.4" y1="49.6" x2="20.4" y2="49.6"/><line fill="none" stroke="#000000" stroke-width="4" stroke-linecap="round" stroke-dasharray="0,3.9378" x1="16.5" y1="50.3" x2="14.5" y2="50.6"/><line fill="none" stroke="#000000" stroke-width="4" stroke-linecap="round" x1="12.6" y1="50.9" x2="12.6" y2="50.9"/></g></g><g display="inline"><g><line fill="none" stroke="#000000" stroke-width="4" stroke-linecap="round" x1="27.7" y1="65" x2="27.7" y2="65"/><line fill="none" stroke="#000000" stroke-width="4" stroke-linecap="round" stroke-dasharray="0,3.9378" x1="24.8" y1="67.7" x2="23.3" y2="69"/><line fill="none" stroke="#000000" stroke-width="4" stroke-linecap="round" x1="21.9" y1="70.3" x2="21.9" y2="70.3"/></g></g><g display="inline"><g><line fill="none" stroke="#000000" stroke-width="4" stroke-linecap="round" x1="66.3" y1="19.7" x2="66.3" y2="19.7"/><line fill="none" stroke="#000000" stroke-width="4" stroke-linecap="round" stroke-dasharray="0,3.9378" x1="68.5" y1="16.4" x2="69.5" y2="14.7"/><line fill="none" stroke="#000000" stroke-width="4" stroke-linecap="round" x1="70.6" y1="13.1" x2="70.6" y2="13.1"/></g></g><g display="inline"><g><line fill="none" stroke="#000000" stroke-width="4" stroke-linecap="round" x1="77.4" y1="32.7" x2="77.4" y2="32.7"/><line fill="none" stroke="#000000" stroke-width="4" stroke-linecap="round" stroke-dasharray="0,3.9378" x1="81" y1="31.1" x2="82.8" y2="30.2"/><line fill="none" stroke="#000000" stroke-width="4" stroke-linecap="round" x1="84.6" y1="29.4" x2="84.6" y2="29.4"/></g></g><g display="inline"><g><line fill="none" stroke="#000000" stroke-width="4" stroke-linecap="round" x1="79.7" y1="49.6" x2="79.7" y2="49.6"/><line fill="none" stroke="#000000" stroke-width="4" stroke-linecap="round" stroke-dasharray="0,3.9378" x1="83.6" y1="50.2" x2="85.5" y2="50.5"/><line fill="none" stroke="#000000" stroke-width="4" stroke-linecap="round" x1="87.4" y1="50.8" x2="87.4" y2="50.8"/></g></g><g display="inline"><g><line fill="none" stroke="#000000" stroke-width="4" stroke-linecap="round" x1="72.3" y1="65" x2="72.3" y2="65"/><line fill="none" stroke="#000000" stroke-width="4" stroke-linecap="round" stroke-dasharray="0,3.9378" x1="75.3" y1="67.6" x2="76.7" y2="68.9"/><line fill="none" stroke="#000000" stroke-width="4" stroke-linecap="round" x1="78.2" y1="70.2" x2="78.2" y2="70.2"/></g></g></g><g display="none"><g display="inline"><path d="M50,20.3c-13.8,0-23.7,10.2-23.7,24.3c0,8.2,3.7,13.5,6.9,18.1c2.5,3.6,4.6,6.7,4.6,10.4c0,4.9,8.1,7,12.2,7    c4.1,0,12.2-2.1,12.2-7c0-3.8,2.2-6.9,4.6-10.4c3.2-4.6,6.9-9.9,6.9-18.1C73.7,30.6,63.7,20.3,50,20.3z M64.4,61    c-2.7,3.8-5.2,7.4-5.2,12.1c0,2-5.3,4-9.2,4c-3.9,0-9.2-2-9.2-4c0-4.7-2.5-8.3-5.2-12.1c-3.1-4.5-6.4-9.1-6.4-16.4    c0-12.3,8.7-21.3,20.7-21.3c12,0,20.7,9,20.7,21.3C70.7,51.9,67.5,56.5,64.4,61z"/><path d="M39.2,82.1c2.9,2.1,6.4,3.1,10.9,3.1c4.4,0,7.9-1,10.8-3.1c0.7-0.5,0.8-1.4,0.3-2.1c-0.5-0.7-1.4-0.8-2.1-0.3    c-2.3,1.7-5.3,2.5-9,2.5c-3.8,0-6.7-0.8-9.1-2.5c-0.7-0.5-1.6-0.3-2.1,0.3C38.3,80.7,38.5,81.6,39.2,82.1z"/><path d="M59.1,85c-2.7,1.9-6.1,2.2-9,2.2c-4.2,0-6.9-0.7-9.1-2.3c-0.7-0.5-1.6-0.3-2.1,0.3c-0.5,0.7-0.3,1.6,0.3,2.1    c1.6,1.1,3.2,1.8,4.9,2.2c0.3,3,2.9,5.4,6,5.4c3.1,0,5.7-2.4,6-5.4c1.7-0.4,3.3-1.1,4.8-2.2c0.7-0.5,0.8-1.4,0.3-2.1    S59.7,84.5,59.1,85z M50,92c-1.3,0-2.3-0.8-2.8-1.9c0.9,0.1,1.9,0.1,2.8,0.1c0.9,0,1.8,0,2.8-0.1C52.4,91.2,51.3,92,50,92z"/><path d="M47.1,26c-4.6,0.8-8.2,3-11.4,7.1c-0.5,0.7-0.4,1.6,0.2,2.1c0.3,0.2,0.6,0.3,0.9,0.3c0.4,0,0.9-0.2,1.2-0.6    c2.7-3.4,5.7-5.3,9.6-6c0.8-0.1,1.4-0.9,1.2-1.7C48.7,26.4,47.9,25.9,47.1,26z"/><path d="M48,14.9c0,0.5,0.2,1,0.6,1.4c0.4,0.4,0.9,0.6,1.4,0.6c0.5,0,1-0.2,1.4-0.6c0.4-0.4,0.6-0.9,0.6-1.4    c0-0.5-0.2-1.1-0.6-1.4c-0.3-0.3-0.8-0.5-1.2-0.5c1-0.1,1.8-0.9,1.8-2c0-1-0.7-1.8-1.7-2c0.4-0.1,0.8-0.3,1.1-0.6    C51.7,8,52,7.5,52,7c0-0.5-0.2-1-0.6-1.4c-0.7-0.8-2.1-0.8-2.8,0C48.2,5.9,48,6.5,48,7c0,0.5,0.2,1,0.6,1.4    c0.3,0.3,0.7,0.5,1.1,0.6c-1,0.1-1.7,1-1.7,2c0,1,0.8,1.9,1.8,2c-0.5,0-0.9,0.2-1.2,0.5C48.2,13.8,48,14.3,48,14.9z"/><path d="M29.3,15.1c0.3,0,0.6-0.1,0.8-0.2c-0.7,0.6-0.9,1.7-0.3,2.6c0.4,0.6,1,0.9,1.7,0.9c0.3,0,0.6-0.1,0.9-0.2    c0,0-0.1,0.1-0.1,0.1c-0.4,0.4-0.6,0.9-0.6,1.4c0,0.5,0.2,1,0.6,1.4c0.4,0.4,0.9,0.6,1.4,0.6c0.5,0,1-0.2,1.4-0.6    c0.4-0.4,0.6-0.9,0.6-1.4s-0.2-1-0.6-1.4c-0.6-0.6-1.5-0.7-2.3-0.4c0.7-0.6,0.9-1.7,0.4-2.6c-0.6-0.8-1.6-1.1-2.5-0.7    c0,0,0.1,0,0.1-0.1c0.4-0.4,0.6-0.9,0.6-1.4c0-0.5-0.2-1-0.6-1.4c-0.8-0.7-2.1-0.7-2.8,0c-0.4,0.4-0.6,0.9-0.6,1.4    c0,0.5,0.2,1,0.6,1.4C28.3,14.9,28.8,15.1,29.3,15.1z"/><path d="M15.4,31.5c0.5,0,1-0.2,1.4-0.6c0.1-0.1,0.2-0.2,0.3-0.3c-0.2,0.9,0.2,1.9,1.1,2.3c0.3,0.1,0.5,0.2,0.8,0.2    c0.7,0,1.3-0.4,1.7-1c-0.1,0.2-0.1,0.4-0.1,0.6c0,0.5,0.2,1.1,0.6,1.4c0.4,0.4,0.9,0.6,1.4,0.6c0.5,0,1-0.2,1.4-0.6    c0.4-0.4,0.6-0.9,0.6-1.4c0-0.5-0.2-1-0.6-1.4c-0.8-0.8-2.1-0.8-2.8,0c-0.1,0.1-0.2,0.2-0.3,0.3c0.2-0.9-0.2-1.9-1.1-2.3    c-0.9-0.4-2-0.1-2.5,0.7c0-0.2,0.1-0.3,0.1-0.5c0-0.5-0.2-1-0.6-1.4c-0.7-0.8-2.1-0.8-2.8,0c-0.4,0.4-0.6,0.9-0.6,1.4    c0,0.5,0.2,1,0.6,1.4C14.3,31.3,14.8,31.5,15.4,31.5z"/><path d="M20.3,51.6c0.5,0,1-0.2,1.4-0.6c0.4-0.4,0.6-0.9,0.6-1.4c0-0.5-0.2-1-0.6-1.4c-0.8-0.7-2.1-0.7-2.8,0    c-0.4,0.4-0.6,0.9-0.6,1.4c-0.3-0.9-1.2-1.5-2.2-1.3c-1,0.2-1.7,1-1.7,2c-0.1-0.3-0.3-0.6-0.5-0.8c-0.8-0.8-2.1-0.8-2.8,0    c-0.4,0.4-0.6,0.9-0.6,1.4s0.2,1,0.6,1.4c0.4,0.4,0.9,0.6,1.4,0.6s1-0.2,1.4-0.6c0.4-0.4,0.6-0.8,0.6-1.4c0.3,0.8,1,1.3,1.9,1.3    c0.1,0,0.2,0,0.3,0c1-0.2,1.7-1,1.7-2c0.1,0.3,0.3,0.6,0.5,0.8C19.3,51.4,19.8,51.6,20.3,51.6z"/><path d="M26.3,63.6c-0.4,0.4-0.6,0.9-0.6,1.4c0,0.4,0.1,0.8,0.3,1.1c-0.8-0.6-1.8-0.6-2.6,0.1c-0.8,0.7-0.9,1.8-0.3,2.6    c-0.8-0.6-2-0.6-2.7,0.1c-0.4,0.4-0.6,0.9-0.6,1.4c0,0.5,0.2,1,0.6,1.4c0.4,0.4,0.9,0.6,1.4,0.6c0.5,0,1-0.2,1.4-0.6    c0.4-0.4,0.6-0.9,0.6-1.4c0-0.4-0.1-0.8-0.3-1.1c0.4,0.3,0.8,0.5,1.3,0.5c0.5,0,0.9-0.2,1.3-0.5c0.7-0.7,0.9-1.8,0.3-2.6    c0.4,0.3,0.8,0.5,1.3,0.5c0.5,0,1-0.2,1.4-0.6c0.4-0.4,0.6-0.9,0.6-1.4c0-0.5-0.2-1-0.6-1.4C28.4,62.8,27,62.9,26.3,63.6z"/><path d="M66.3,21.7c0.5,0,1-0.2,1.4-0.6c0.4-0.4,0.6-0.9,0.6-1.4c0-0.5-0.2-1-0.6-1.4c0,0-0.1-0.1-0.1-0.1    c0.3,0.1,0.6,0.2,0.9,0.2c0.7,0,1.3-0.3,1.7-0.9c0.5-0.8,0.4-1.9-0.4-2.6c0.3,0.1,0.5,0.2,0.8,0.2c0.5,0,1-0.2,1.4-0.6    c0.4-0.4,0.6-0.9,0.6-1.4c0-0.5-0.2-1-0.6-1.4c-0.7-0.8-2.1-0.8-2.8,0c-0.4,0.4-0.6,0.9-0.6,1.4c0,0.5,0.2,1,0.6,1.4    c0,0,0.1,0,0.1,0.1c-0.9-0.4-1.9-0.1-2.5,0.7c-0.6,0.8-0.4,2,0.4,2.6c-0.7-0.3-1.7-0.2-2.3,0.4c-0.4,0.4-0.6,0.9-0.6,1.4    c0,0.5,0.2,1,0.6,1.4C65.3,21.5,65.8,21.7,66.3,21.7z"/><path d="M77.4,34.6c0.5,0,1-0.2,1.4-0.6c0.4-0.4,0.6-0.9,0.6-1.4c0-0.2,0-0.4-0.1-0.6c0.4,0.6,1,1,1.7,1c0.3,0,0.5,0,0.8-0.2    c0.9-0.4,1.4-1.4,1.1-2.3c0.1,0.1,0.2,0.2,0.2,0.3c0.4,0.4,0.9,0.6,1.4,0.6c0.5,0,1-0.2,1.4-0.6c0.4-0.4,0.6-0.9,0.6-1.4    c0-0.5-0.2-1-0.6-1.4c-0.8-0.7-2.1-0.7-2.8,0c-0.4,0.4-0.6,0.9-0.6,1.4c0,0.2,0,0.4,0.1,0.5c-0.5-0.8-1.6-1.2-2.5-0.8    c-0.9,0.4-1.4,1.4-1.1,2.3c-0.1-0.1-0.2-0.2-0.2-0.3c-0.8-0.8-2.1-0.8-2.8,0c-0.4,0.4-0.6,0.9-0.6,1.4c0,0.5,0.2,1,0.6,1.4    C76.4,34.4,76.9,34.6,77.4,34.6z"/><path d="M88.8,49.4c-0.7-0.8-2.1-0.8-2.8,0c-0.2,0.2-0.4,0.5-0.5,0.8c0-1-0.7-1.8-1.7-2c-1-0.2-1.9,0.4-2.2,1.4    c0-0.5-0.2-1-0.6-1.4c-0.8-0.7-2.1-0.7-2.8,0c-0.4,0.4-0.6,0.9-0.6,1.4c0,0.5,0.2,1,0.6,1.4c0.4,0.4,0.9,0.6,1.4,0.6    c0.5,0,1-0.2,1.4-0.6c0.2-0.2,0.4-0.5,0.5-0.8c0,1,0.7,1.8,1.7,2c0.1,0,0.2,0,0.3,0c0.9,0,1.6-0.5,1.9-1.3c0,0.5,0.2,1,0.6,1.4    c0.4,0.4,0.9,0.6,1.4,0.6c0.5,0,1-0.2,1.4-0.6c0.4-0.4,0.6-0.9,0.6-1.4C89.4,50.3,89.2,49.7,88.8,49.4z"/><path d="M76.9,68.7c0.6-0.8,0.5-1.9-0.3-2.6c-0.7-0.7-1.8-0.7-2.6-0.1c0.2-0.3,0.3-0.7,0.3-1.1c0-0.5-0.2-1-0.6-1.4    c-0.7-0.7-2.1-0.7-2.8,0c-0.4,0.4-0.6,0.9-0.6,1.4c0,0.5,0.2,1,0.6,1.4c0.4,0.4,0.9,0.6,1.4,0.6c0.5,0,0.9-0.2,1.3-0.5    c-0.5,0.8-0.4,1.9,0.3,2.6c0.4,0.3,0.9,0.5,1.3,0.5c0.4,0,0.9-0.2,1.3-0.5c-0.2,0.3-0.3,0.7-0.3,1.1c0,0.5,0.2,1,0.6,1.4    c0.4,0.4,0.9,0.6,1.4,0.6c0.5,0,1-0.2,1.4-0.6c0.4-0.4,0.6-0.9,0.6-1.4c0-0.5-0.2-1-0.6-1.4C78.9,68.1,77.7,68.1,76.9,68.7z"/></g></g><g display="none"><path display="inline" fill="none" stroke="#000000" stroke-width="3" stroke-linecap="round" d="M50,78.7c3.8,0,10.7-2,10.7-5.5   c0-9.4,11.5-14.5,11.5-28.5c0-12.7-8.8-22.8-22.2-22.8S27.8,32,27.8,44.6c0,14.1,11.5,19.1,11.5,28.5C39.3,76.8,46.2,78.7,50,78.7z   "/><path display="inline" fill="none" stroke="#000000" stroke-width="3" stroke-linecap="round" d="M60,80.9c-2.8,2-6.2,2.8-9.9,2.8   c-3.7,0-7.1-0.8-10-2.8"/><path display="inline" fill="none" stroke="#000000" stroke-width="3" stroke-linecap="round" d="M60,86.2c-2.8,2-6.2,2.5-9.9,2.5   c-3.7,0-7.1-0.5-10-2.5"/><path display="inline" fill="none" stroke="#000000" stroke-width="3" stroke-linecap="round" d="M45.5,89c0,2.5,2,4.5,4.5,4.5   c2.5,0,4.5-2,4.5-4.5"/><path display="inline" fill="none" stroke="#000000" stroke-width="3" stroke-linecap="round" d="M47.4,27.5   c-4.6,0.8-7.8,3.2-10.5,6.5"/></g><g display="none"><g display="inline"><path d="M50,20.3c-13.8,0-23.7,10.2-23.7,24.3c0,8.2,3.7,13.5,6.9,18.1c2.5,3.6,4.6,6.7,4.6,10.4c0,4.9,8.1,7,12.2,7    c4.1,0,12.2-2.1,12.2-7c0-3.8,2.2-6.9,4.6-10.4c3.2-4.6,6.9-9.9,6.9-18.1C73.7,30.6,63.8,20.3,50,20.3z M64.4,61    c-2.7,3.8-5.2,7.4-5.2,12.1c0,2-5.3,4-9.2,4c-3.9,0-9.2-2-9.2-4c0-4.7-2.5-8.3-5.2-12.1c-3.1-4.5-6.4-9.1-6.4-16.4    c0-12.3,8.7-21.3,20.7-21.3c12,0,20.7,9,20.7,21.3C70.7,51.9,67.5,56.5,64.4,61z"/><path d="M39.2,82.1c2.9,2.1,6.4,3.1,10.9,3.1c4.4,0,7.9-1,10.8-3.1c0.7-0.5,0.8-1.4,0.3-2.1c-0.5-0.7-1.4-0.8-2.1-0.3    c-2.3,1.7-5.3,2.5-9,2.5c-3.8,0-6.7-0.8-9.1-2.5c-0.7-0.5-1.6-0.3-2.1,0.3C38.3,80.7,38.5,81.6,39.2,82.1z"/><path d="M59.1,85c-2.7,1.9-6.1,2.2-9,2.2c-4.2,0-6.9-0.7-9.1-2.3c-0.7-0.5-1.6-0.3-2.1,0.3c-0.5,0.7-0.3,1.6,0.3,2.1    c1.6,1.1,3.2,1.8,4.9,2.2c0.3,3,2.9,5.4,6,5.4c3.1,0,5.7-2.4,6-5.4c1.7-0.4,3.3-1.1,4.8-2.2c0.7-0.5,0.8-1.4,0.3-2.1    S59.7,84.5,59.1,85z M50,92c-1.3,0-2.3-0.8-2.8-1.9c0.9,0.1,1.9,0.1,2.8,0.1c0.9,0,1.8,0,2.8-0.1C52.4,91.2,51.3,92,50,92z"/><path d="M47.1,26c-4.6,0.8-8.2,3-11.4,7.1c-0.5,0.7-0.4,1.6,0.2,2.1c0.3,0.2,0.6,0.3,0.9,0.3c0.4,0,0.9-0.2,1.2-0.6    c2.7-3.4,5.7-5.3,9.6-6c0.8-0.1,1.4-0.9,1.2-1.7C48.7,26.4,48,25.9,47.1,26z"/></g></g><g display="none"><line display="inline" fill="none" stroke="#000000" stroke-width="3" stroke-linecap="round" x1="50" y1="37" x2="50" y2="71"/><path display="inline" fill="none" stroke="#000000" stroke-width="3" stroke-linecap="round" d="M43.5,63.2c0.7,1,2.9,2.8,6.5,2.8   c3.8,0,6.5-2.6,6.5-5.5c0-7.2-13-5.6-13-13c0-2.9,2.7-5.5,6.5-5.5c3.6,0,5.7,1.7,6.5,2.8"/></g><g display="none"><line display="inline" fill="none" stroke="#000000" stroke-width="3" stroke-linecap="round" x1="52.5" y1="37" x2="52.5" y2="71"/><line display="inline" fill="none" stroke="#000000" stroke-width="3" stroke-linecap="round" x1="47.5" y1="37" x2="47.5" y2="71"/><path display="inline" fill="none" stroke="#000000" stroke-width="3" stroke-linecap="round" d="M43.5,63.2c0.7,1,2.9,2.8,6.5,2.8   c3.8,0,6.5-2.6,6.5-5.5c0-7.2-13-5.6-13-13c0-2.9,2.7-5.5,6.5-5.5c3.6,0,5.7,1.7,6.5,2.8"/></g><g display="none"><line display="inline" fill="none" stroke="#000000" stroke-width="3" stroke-linecap="round" x1="50" y1="37" x2="50" y2="42"/><line display="inline" fill="none" stroke="#000000" stroke-width="3" stroke-linecap="round" x1="50" y1="66" x2="50" y2="71"/><path display="inline" fill="none" stroke="#000000" stroke-width="3" stroke-linecap="round" d="M43.5,63.2c0.7,1,2.9,2.8,6.5,2.8   c3.8,0,6.5-2.6,6.5-5.5c0-7.2-13-5.6-13-13c0-2.9,2.7-5.5,6.5-5.5c3.6,0,5.7,1.7,6.5,2.8"/></g><g display="none"><path display="inline" fill="none" stroke="#000000" stroke-width="3" stroke-linecap="round" d="M57,64.9c-1,3.6-3.7,6.1-6.8,6.1   h0c-4,0-7.2-4.2-7.2-9.3V46.3c0-5.1,3.2-9.3,7.2-9.3h0c3.1,0,5.8,2.6,6.8,6.2"/><line display="inline" fill="none" stroke="#000000" stroke-width="3" stroke-linecap="round" x1="40" y1="51.5" x2="54" y2="51.5"/><line display="inline" fill="none" stroke="#000000" stroke-width="3" stroke-linecap="round" x1="40" y1="56.5" x2="54" y2="56.5"/></g><g display="none"><path display="inline" fill="#000000" stroke="#FFFFFF" stroke-width="3" stroke-linecap="round" d="M57,64.9c-1,3.6-3.7,6.1-6.8,6.1   h0c-4,0-7.2-4.2-7.2-9.3V46.3c0-5.1,3.2-9.3,7.2-9.3h0c3.1,0,5.8,2.6,6.8,6.2"/><line display="inline" fill="#000000" stroke="#FFFFFF" stroke-width="3" stroke-linecap="round" x1="40" y1="51.5" x2="54" y2="51.5"/><line display="inline" fill="#000000" stroke="#FFFFFF" stroke-width="3" stroke-linecap="round" x1="40" y1="56.5" x2="54" y2="56.5"/></g><g display="none"><path display="inline" fill="none" stroke="#000000" stroke-width="3" stroke-linecap="round" d="M57,64.9c-1,3.6-3.7,6.1-6.8,6.1   h0c-4,0-7.2-4.2-7.2-9.3V46.3c0-5.1,3.2-9.3,7.2-9.3h0c3.1,0,5.8,2.6,6.8,6.2"/><line display="inline" fill="none" stroke="#000000" stroke-width="3" stroke-linecap="round" x1="43" y1="51.5" x2="55" y2="51.5"/><line display="inline" fill="none" stroke="#000000" stroke-width="3" stroke-linecap="round" x1="43" y1="56.5" x2="55" y2="56.5"/></g><g display="none"><path display="inline" fill="none" stroke="#000000" stroke-width="3" stroke-linecap="round" d="M57,59.5c0,3.6-3.1,6.5-7,6.5h0   c-3.8,0-7-2.9-7-6.5V48.5c0-3.6,3.1-6.5,7-6.5h0c3.8,0,7,2.9,7,6.5"/><line display="inline" fill="none" stroke="#000000" stroke-width="3" stroke-linecap="round" x1="50" y1="37" x2="50" y2="71"/></g><g display="none"><path display="inline" fill="none" stroke="#000000" stroke-width="3" stroke-linecap="round" d="M57,59.5c0,3.6-3.1,6.5-7,6.5h0   c-3.8,0-7-2.9-7-6.5V48.5c0-3.6,3.1-6.5,7-6.5h0c3.8,0,7,2.9,7,6.5"/><line display="inline" fill="none" stroke="#000000" stroke-width="3" stroke-linecap="round" x1="54.4" y1="37.6" x2="45.6" y2="70.4"/></g><g display="none"><path display="inline" fill="none" stroke="#000000" stroke-width="3" stroke-linecap="round" d="M57,59.5c0,3.6-3.1,6.5-7,6.5h0   c-3.8,0-7-2.9-7-6.5V48.5c0-3.6,3.1-6.5,7-6.5h0c3.8,0,7,2.9,7,6.5"/><line display="inline" fill="none" stroke="#000000" stroke-width="3" stroke-linecap="round" x1="50" y1="37" x2="50" y2="42"/><line display="inline" fill="none" stroke="#000000" stroke-width="3" stroke-linecap="round" x1="50" y1="66" x2="50" y2="71"/></g><g display="none"><line display="inline" fill="none" stroke="#000000" stroke-width="3" stroke-linecap="round" x1="41.5" y1="54" x2="53.5" y2="54"/><path display="inline" fill="none" stroke="#000000" stroke-width="3" stroke-linecap="round" stroke-linejoin="round" d="   M56.1,68.2c0,2.2-0.9,2.8-2.1,2.8c-1.2,0-4.7-3.4-9.8,0c0,0,3.9-4.7,3.9-9.1c0-4.4-3.8-14.6-3.8-18.4c0-3.6,3-6.5,6.7-6.5   c2.9,0,5.4,1.8,6.3,4.4"/></g><g display="none"><line display="inline" fill="none" stroke="#000000" stroke-width="3" stroke-linecap="round" x1="41.5" y1="51.5" x2="53.5" y2="51.5"/><line display="inline" fill="none" stroke="#000000" stroke-width="3" stroke-linecap="round" x1="41.5" y1="56.5" x2="53.5" y2="56.5"/><path display="inline" fill="none" stroke="#000000" stroke-width="3" stroke-linecap="round" stroke-linejoin="round" d="   M56.1,68.2c0,2.2-0.9,2.8-2.1,2.8c-1.2,0-4.7-3.4-9.8,0c0,0,3.9-4.7,3.9-9.1c0-4.4-3.8-14.6-3.8-18.4c0-3.6,3-6.5,6.7-6.5   c2.9,0,5.4,1.8,6.3,4.4"/></g><g display="none"><path display="inline" fill="none" stroke="#000000" stroke-width="3" stroke-linecap="round" d="M57.5,65.9c-1,3-3.8,5.1-7.1,5.1   c-4.1,0-7.5-3.4-7.5-7.5c0-4.4,3.1-6.5,7-9.5s7-5.1,7-9.5c0-4.1-3.3-7.5-7.5-7.5c-3.3,0-6.1,2.1-7.1,5.1"/><line display="inline" fill="none" stroke="#000000" stroke-width="3" stroke-linecap="round" x1="41" y1="51.5" x2="59" y2="51.5"/><line display="inline" fill="none" stroke="#000000" stroke-width="3" stroke-linecap="round" x1="41" y1="56.5" x2="59" y2="56.5"/></g><g display="none"><line display="inline" fill="none" stroke="#000000" stroke-width="3" stroke-linecap="round" x1="40" y1="59" x2="58" y2="59"/><line display="inline" fill="none" stroke="#000000" stroke-width="3" stroke-linecap="round" x1="40" y1="54" x2="45" y2="54"/><path display="inline" fill="none" stroke="#000000" stroke-width="3" stroke-linecap="round" stroke-linejoin="round" d="M45,71   V37h2.8c5.5,0,10.2,2.9,10.2,7.8S53.2,54,47.8,54H45"/></g><g display="none"><line display="inline" fill="none" stroke="#000000" stroke-width="3" stroke-linecap="round" stroke-linejoin="round" x1="43" y1="42" x2="43" y2="66"/><path display="inline" fill="none" stroke="#000000" stroke-width="3" stroke-linecap="round" stroke-linejoin="round" d="M45,54   h5.1c5.9,0,8.9-2.2,8.9-6s-3-6-8.9-6H43"/><path display="inline" fill="none" stroke="#000000" stroke-width="3" stroke-linecap="round" stroke-linejoin="round" d="M45,54   h5.1c5.9,0,8.9,2.2,8.9,6s-3,6-8.9,6H43"/><line display="inline" fill="none" stroke="#000000" stroke-width="3" stroke-linecap="round" x1="50" y1="37" x2="50" y2="42"/><line display="inline" fill="none" stroke="#000000" stroke-width="3" stroke-linecap="round" x1="50" y1="66" x2="50" y2="71"/></g><g display="none"><line display="inline" fill="none" stroke="#000000" stroke-width="3" stroke-linecap="round" stroke-linejoin="round" x1="45" y1="42" x2="45" y2="66"/><path display="inline" fill="none" stroke="#000000" stroke-width="3" stroke-linecap="round" stroke-linejoin="round" d="M45,54   h5.1c5.9,0,8.9-2.2,8.9-6s-3-6-8.9-6H43"/><path display="inline" fill="none" stroke="#000000" stroke-width="3" stroke-linecap="round" stroke-linejoin="round" d="M45,54   h5.1c5.9,0,8.9,2.2,8.9,6s-3,6-8.9,6H43"/><line display="inline" fill="none" stroke="#000000" stroke-width="3" stroke-linecap="round" x1="52.5" y1="37" x2="52.5" y2="42"/><line display="inline" fill="none" stroke="#000000" stroke-width="3" stroke-linecap="round" x1="52.5" y1="66" x2="52.5" y2="71"/><line display="inline" fill="none" stroke="#000000" stroke-width="3" stroke-linecap="round" x1="47.5" y1="37" x2="47.5" y2="42"/><line display="inline" fill="none" stroke="#000000" stroke-width="3" stroke-linecap="round" x1="47.5" y1="66" x2="47.5" y2="71"/></g><g display="none"><path display="inline" fill="none" stroke="#000000" stroke-width="3" stroke-linecap="round" stroke-linejoin="round" d="M46,37   v34c9.2,0,12-11.1,12-11.1"/><line display="inline" fill="none" stroke="#000000" stroke-width="3" stroke-linecap="round" x1="42" y1="51" x2="57" y2="46"/><line display="inline" fill="none" stroke="#000000" stroke-width="3" stroke-linecap="round" x1="42" y1="56" x2="57" y2="51"/></g><g display="none"><line display="inline" fill="none" stroke="#000000" stroke-width="3" stroke-linecap="round" x1="43" y1="37" x2="61" y2="37"/><line display="inline" fill="none" stroke="#000000" stroke-width="3" stroke-linecap="round" x1="43" y1="42" x2="61" y2="42"/><path display="inline" fill="none" stroke="#000000" stroke-width="3" stroke-linecap="round" stroke-linejoin="round" d="M43,37   h2.8c5.5,0,10.2,3.6,10.2,8.5S51.2,54,45.8,54H43l12,17"/></g><g display="none"><polyline display="inline" fill="none" stroke="#000000" stroke-width="3" stroke-linecap="round" stroke-linejoin="round" points="   58,37 50,54 42,37  "/><line display="inline" fill="none" stroke="#000000" stroke-width="3" stroke-linecap="round" stroke-linejoin="round" x1="50" y1="54" x2="50" y2="71"/><line display="inline" fill="none" stroke="#000000" stroke-width="3" stroke-linecap="round" x1="43" y1="55.5" x2="57" y2="55.5"/><line display="inline" fill="none" stroke="#000000" stroke-width="3" stroke-linecap="round" x1="43" y1="60.5" x2="57" y2="60.5"/></g><g display="none"><polyline display="inline" fill="none" stroke="#000000" stroke-width="3" stroke-linecap="round" stroke-linejoin="round" points="   58,37 50,54 42,37  "/><line display="inline" fill="none" stroke="#000000" stroke-width="3" stroke-linecap="round" stroke-linejoin="round" x1="50" y1="54" x2="50" y2="71"/><line display="inline" fill="none" stroke="#000000" stroke-width="3" stroke-linecap="round" x1="43" y1="55.5" x2="57" y2="55.5"/></g><g display="none"><line display="inline" fill="none" stroke="#000000" stroke-width="3" stroke-linecap="round" stroke-linejoin="round" x1="42.5" y1="41" x2="57.5" y2="41"/><line display="inline" fill="none" stroke="#000000" stroke-width="3" stroke-linecap="round" stroke-linejoin="round" x1="41" y1="47" x2="59" y2="47"/><path display="inline" fill="none" stroke="#000000" stroke-width="3" stroke-linecap="round" stroke-linejoin="round" d="M47,47   c0,0,0,8.9-6,12"/><polyline display="inline" fill="none" stroke="#000000" stroke-width="3" stroke-linecap="round" stroke-linejoin="round" points="   53,47 53,59 57.5,59 59,55  "/></g><g display="none"><line display="inline" fill="none" stroke="#000000" stroke-width="3" stroke-linecap="round" stroke-linejoin="round" x1="41" y1="49" x2="59" y2="49"/><polyline display="inline" fill="none" stroke="#000000" stroke-width="3" stroke-linecap="round" stroke-linejoin="round" points="   41,59 41,41 59,41 59,59 55,59  "/><line display="inline" fill="none" stroke="#000000" stroke-width="3" stroke-linecap="round" stroke-linejoin="round" x1="50" y1="41" x2="50" y2="49"/></g><g display="none"><path display="inline" fill="none" stroke="#000000" stroke-width="3" stroke-linecap="round" stroke-linejoin="round" d="M41,59   V41h7c0,0,5,0,5,8v4"/><path display="inline" fill="none" stroke="#000000" stroke-width="3" stroke-linecap="round" stroke-linejoin="round" d="M59,41   v11c0,0,0,7.2-6,7h-6V47"/></g><g display="none"><polyline display="inline" fill="none" stroke="#000000" stroke-width="3" stroke-linecap="round" stroke-linejoin="round" points="   41,37 45.5,71 50,40.5 54.5,71 59,37  "/><line display="inline" fill="none" stroke="#000000" stroke-width="3" stroke-linecap="round" x1="40" y1="51.5" x2="60" y2="51.5"/><line display="inline" fill="none" stroke="#000000" stroke-width="3" stroke-linecap="round" x1="40" y1="56.5" x2="60" y2="56.5"/></g><g display="none"><polyline display="inline" fill="none" stroke="#000000" stroke-width="3" stroke-linecap="round" stroke-linejoin="round" points="   66.5,29.5 65.2,36.1 59.8,33.6 59.4,41.1 54,41.5 50.2,49.5  "/></g><g display="none"><path display="inline" fill="none" stroke="#000000" stroke-width="3" stroke-linecap="round" d="M50,64c0-8.3,8-13.9,8-18.8   c0-4.6-3.7-8.2-8.2-8.2c-3.6,0-6.7,2.3-7.8,5.6"/><circle display="inline" cx="50" cy="70.5" r="2"/></g><g display="none"><circle display="inline" cx="50" cy="70.5" r="2"/><line display="inline" fill="none" stroke="#000000" stroke-width="3" stroke-linecap="round" x1="50" y1="64" x2="50" y2="37"/></g><g display="none"><circle display="inline" cx="50" cy="70.5" r="2"/><line display="inline" fill="none" stroke="#000000" stroke-width="3" stroke-linecap="round" x1="50" y1="64" x2="50" y2="37"/></g><g display="none"><g display="inline"><circle cx="50" cy="70.5" r="2"/><path d="M48.5,64c0,0.8,0.7,1.5,1.5,1.5s1.5-0.7,1.5-1.5V37c0-0.8-0.7-1.5-1.5-1.5s-1.5,0.7-1.5,1.5V64z"/><path d="M50,20.3c-13.8,0-23.7,10.2-23.7,24.3c0,8.2,3.7,13.5,6.9,18.1c2.5,3.6,4.6,6.7,4.6,10.4c0,4.9,8.1,7,12.2,7    c4.1,0,12.2-2.1,12.2-7c0-3.8,2.2-6.9,4.6-10.4c3.2-4.6,6.9-9.9,6.9-18.1C73.7,30.6,63.8,20.3,50,20.3z M64.4,61    c-2.7,3.8-5.2,7.4-5.2,12.1c0,2-5.3,4-9.2,4c-3.9,0-9.2-2-9.2-4c0-4.7-2.5-8.3-5.2-12.1c-3.1-4.5-6.4-9.1-6.4-16.4    c0-12.3,8.7-21.3,20.7-21.3c12,0,20.7,9,20.7,21.3C70.7,51.9,67.5,56.5,64.4,61z"/><path d="M39.2,82.1c2.9,2.1,6.4,3.1,10.9,3.1c4.4,0,7.9-1,10.8-3.1c0.7-0.5,0.8-1.4,0.3-2.1c-0.5-0.7-1.4-0.8-2.1-0.3    c-2.3,1.7-5.3,2.5-9,2.5c-3.8,0-6.7-0.8-9.1-2.5c-0.7-0.5-1.6-0.3-2.1,0.3C38.3,80.7,38.5,81.6,39.2,82.1z"/><path d="M59.1,85c-2.7,1.9-6.1,2.2-9,2.2c-4.2,0-6.9-0.7-9.1-2.3c-0.7-0.5-1.6-0.3-2.1,0.3c-0.5,0.7-0.3,1.6,0.3,2.1    c1.6,1.1,3.2,1.8,4.9,2.2c0.3,3,2.9,5.4,6,5.4c3.1,0,5.7-2.4,6-5.4c1.7-0.4,3.3-1.1,4.8-2.2c0.7-0.5,0.8-1.4,0.3-2.1    S59.7,84.5,59.1,85z M50,92c-1.3,0-2.3-0.8-2.8-1.9c0.9,0.1,1.9,0.1,2.8,0.1c0.9,0,1.8,0,2.8-0.1C52.4,91.2,51.3,92,50,92z"/><path d="M48.9,27.3c-0.1-0.8-0.9-1.4-1.7-1.2c-4.6,0.8-8.2,3-11.4,7.1c-0.5,0.7-0.4,1.6,0.2,2.1c0.3,0.2,0.6,0.3,0.9,0.3    c0.4,0,0.9-0.2,1.2-0.6c2.7-3.4,5.7-5.3,9.6-6C48.5,28.8,49,28.1,48.9,27.3z"/></g></g><g><g><circle cx="50" cy="70.5" r="2"/><path d="M48.5,64c0,0.8,0.7,1.5,1.5,1.5s1.5-0.7,1.5-1.5V37c0-0.8-0.7-1.5-1.5-1.5s-1.5,0.7-1.5,1.5V64z"/><path d="M50,20.3c-13.8,0-23.7,10.2-23.7,24.3c0,8.2,3.7,13.5,6.9,18.1c2.5,3.6,4.6,6.7,4.6,10.4c0,4.9,8.1,7,12.2,7    c4.1,0,12.2-2.1,12.2-7c0-3.8,2.2-6.9,4.6-10.4c3.2-4.6,6.9-9.9,6.9-18.1C73.7,30.6,63.8,20.3,50,20.3z M64.4,61    c-2.7,3.8-5.2,7.4-5.2,12.1c0,2-5.3,4-9.2,4c-3.9,0-9.2-2-9.2-4c0-4.7-2.5-8.3-5.2-12.1c-3.1-4.5-6.4-9.1-6.4-16.4    c0-12.3,8.7-21.3,20.7-21.3c12,0,20.7,9,20.7,21.3C70.7,51.9,67.5,56.5,64.4,61z"/><path d="M39.2,82.1c2.9,2.1,6.4,3.1,10.9,3.1c4.4,0,7.9-1,10.8-3.1c0.7-0.5,0.8-1.4,0.3-2.1c-0.5-0.7-1.4-0.8-2.1-0.3    c-2.3,1.7-5.3,2.5-9,2.5c-3.8,0-6.7-0.8-9.1-2.5c-0.7-0.5-1.6-0.3-2.1,0.3C38.3,80.7,38.5,81.6,39.2,82.1z"/><path d="M59.1,85c-2.7,1.9-6.1,2.2-9,2.2c-4.2,0-6.9-0.7-9.1-2.3c-0.7-0.5-1.6-0.3-2.1,0.3c-0.5,0.7-0.3,1.6,0.3,2.1    c1.6,1.1,3.2,1.8,4.9,2.2c0.3,3,2.9,5.4,6,5.4c3.1,0,5.7-2.4,6-5.4c1.7-0.4,3.3-1.1,4.8-2.2c0.7-0.5,0.8-1.4,0.3-2.1    S59.7,84.5,59.1,85z M50,92c-1.3,0-2.3-0.8-2.8-1.9c0.9,0.1,1.9,0.1,2.8,0.1c0.9,0,1.8,0,2.8-0.1C52.4,91.2,51.3,92,50,92z"/><path d="M48.9,27.3c-0.1-0.8-0.9-1.4-1.7-1.2c-4.6,0.8-8.2,3-11.4,7.1c-0.5,0.7-0.4,1.6,0.2,2.1c0.3,0.2,0.6,0.3,0.9,0.3    c0.4,0,0.9-0.2,1.2-0.6c2.7-3.4,5.7-5.3,9.6-6C48.5,28.8,49,28.1,48.9,27.3z"/><path d="M48,14.9c0,0.5,0.2,1,0.6,1.4c0.4,0.4,0.9,0.6,1.4,0.6c0.5,0,1-0.2,1.4-0.6c0.4-0.4,0.6-0.9,0.6-1.4    c0-0.5-0.2-1.1-0.6-1.4c-0.3-0.3-0.8-0.5-1.2-0.5c1-0.1,1.8-0.9,1.8-2c0-1-0.7-1.8-1.7-2c0.4-0.1,0.8-0.3,1.1-0.6    C51.8,8,52,7.5,52,7c0-0.5-0.2-1-0.6-1.4c-0.7-0.8-2.1-0.8-2.8,0C48.2,6,48,6.5,48,7c0,0.5,0.2,1,0.6,1.4c0.3,0.3,0.7,0.5,1.1,0.6    c-1,0.1-1.7,1-1.7,2c0,1,0.8,1.9,1.8,2c-0.5,0-0.9,0.2-1.2,0.5C48.2,13.8,48,14.3,48,14.9z"/><path d="M29.3,15.1c0.3,0,0.6-0.1,0.8-0.2c-0.7,0.6-0.9,1.7-0.3,2.6c0.4,0.6,1,0.9,1.7,0.9c0.3,0,0.6-0.1,0.9-0.2    c0,0-0.1,0.1-0.1,0.1c-0.4,0.4-0.6,0.9-0.6,1.4c0,0.5,0.2,1,0.6,1.4c0.4,0.4,0.9,0.6,1.4,0.6c0.5,0,1-0.2,1.4-0.6    c0.4-0.4,0.6-0.9,0.6-1.4s-0.2-1-0.6-1.4c-0.6-0.6-1.5-0.7-2.3-0.4c0.7-0.6,0.9-1.7,0.4-2.6c-0.6-0.8-1.6-1.1-2.5-0.7    c0,0,0.1,0,0.1-0.1c0.4-0.4,0.6-0.9,0.6-1.4c0-0.5-0.2-1-0.6-1.4c-0.8-0.7-2.1-0.7-2.8,0c-0.4,0.4-0.6,0.9-0.6,1.4    c0,0.5,0.2,1,0.6,1.4C28.3,14.9,28.8,15.1,29.3,15.1z"/><path d="M15.4,31.5c0.5,0,1-0.2,1.4-0.6c0.1-0.1,0.2-0.2,0.3-0.3c-0.2,0.9,0.2,1.9,1.1,2.3c0.3,0.1,0.5,0.2,0.8,0.2    c0.7,0,1.3-0.4,1.7-1c-0.1,0.2-0.1,0.4-0.1,0.6c0,0.5,0.2,1.1,0.6,1.4c0.4,0.4,0.9,0.6,1.4,0.6c0.5,0,1-0.2,1.4-0.6    c0.4-0.4,0.6-0.9,0.6-1.4c0-0.5-0.2-1-0.6-1.4c-0.8-0.8-2.1-0.8-2.8,0c-0.1,0.1-0.2,0.2-0.3,0.3c0.2-0.9-0.2-1.9-1.1-2.3    c-0.9-0.4-2-0.1-2.5,0.7c0-0.2,0.1-0.3,0.1-0.5c0-0.5-0.2-1-0.6-1.4c-0.7-0.8-2.1-0.8-2.8,0c-0.4,0.4-0.6,0.9-0.6,1.4    c0,0.5,0.2,1,0.6,1.4C14.3,31.3,14.8,31.5,15.4,31.5z"/><path d="M20.3,51.6c0.5,0,1-0.2,1.4-0.6c0.4-0.4,0.6-0.9,0.6-1.4c0-0.5-0.2-1-0.6-1.4c-0.8-0.7-2.1-0.7-2.8,0    c-0.4,0.4-0.6,0.9-0.6,1.4c-0.3-0.9-1.2-1.5-2.2-1.3c-1,0.2-1.7,1-1.7,2c-0.1-0.3-0.3-0.6-0.5-0.8c-0.8-0.8-2.1-0.8-2.8,0    c-0.4,0.4-0.6,0.9-0.6,1.4s0.2,1,0.6,1.4c0.4,0.4,0.9,0.6,1.4,0.6s1-0.2,1.4-0.6c0.4-0.4,0.6-0.8,0.6-1.4c0.3,0.8,1,1.3,1.9,1.3    c0.1,0,0.2,0,0.3,0c1-0.2,1.7-1,1.7-2c0.1,0.3,0.3,0.6,0.5,0.8C19.3,51.4,19.8,51.6,20.3,51.6z"/><path d="M26.3,63.6c-0.4,0.4-0.6,0.9-0.6,1.4c0,0.4,0.1,0.8,0.3,1.1c-0.8-0.6-1.8-0.6-2.6,0.1c-0.8,0.7-0.9,1.8-0.3,2.6    c-0.8-0.6-2-0.6-2.7,0.1c-0.4,0.4-0.6,0.9-0.6,1.4c0,0.5,0.2,1,0.6,1.4c0.4,0.4,0.9,0.6,1.4,0.6c0.5,0,1-0.2,1.4-0.6    c0.4-0.4,0.6-0.9,0.6-1.4c0-0.4-0.1-0.8-0.3-1.1c0.4,0.3,0.8,0.5,1.3,0.5c0.5,0,0.9-0.2,1.3-0.5c0.7-0.7,0.9-1.8,0.3-2.6    c0.4,0.3,0.8,0.5,1.3,0.5c0.5,0,1-0.2,1.4-0.6c0.4-0.4,0.6-0.9,0.6-1.4c0-0.5-0.2-1-0.6-1.4C28.4,62.9,27,62.9,26.3,63.6z"/><path d="M66.3,21.7c0.5,0,1-0.2,1.4-0.6c0.4-0.4,0.6-0.9,0.6-1.4c0-0.5-0.2-1-0.6-1.4c0,0-0.1-0.1-0.1-0.1    c0.3,0.1,0.6,0.2,0.9,0.2c0.7,0,1.3-0.3,1.7-0.9c0.5-0.8,0.4-1.9-0.4-2.6c0.3,0.1,0.5,0.2,0.8,0.2c0.5,0,1-0.2,1.4-0.6    c0.4-0.4,0.6-0.9,0.6-1.4c0-0.5-0.2-1-0.6-1.4c-0.7-0.8-2.1-0.8-2.8,0c-0.4,0.4-0.6,0.9-0.6,1.4c0,0.5,0.2,1,0.6,1.4    c0,0,0.1,0,0.1,0.1c-0.9-0.4-1.9-0.1-2.5,0.7c-0.6,0.8-0.4,2,0.4,2.6c-0.7-0.3-1.7-0.2-2.3,0.4c-0.4,0.4-0.6,0.9-0.6,1.4    c0,0.5,0.2,1,0.6,1.4C65.3,21.5,65.8,21.7,66.3,21.7z"/><path d="M77.4,34.6c0.5,0,1-0.2,1.4-0.6c0.4-0.4,0.6-0.9,0.6-1.4c0-0.2,0-0.4-0.1-0.6c0.4,0.6,1,1,1.7,1c0.3,0,0.5,0,0.8-0.2    c0.9-0.4,1.4-1.4,1.1-2.3c0.1,0.1,0.2,0.2,0.2,0.3c0.4,0.4,0.9,0.6,1.4,0.6c0.5,0,1-0.2,1.4-0.6c0.4-0.4,0.6-0.9,0.6-1.4    c0-0.5-0.2-1-0.6-1.4c-0.8-0.7-2.1-0.7-2.8,0c-0.4,0.4-0.6,0.9-0.6,1.4c0,0.2,0,0.4,0.1,0.5c-0.5-0.8-1.6-1.2-2.5-0.8    c-0.9,0.4-1.4,1.4-1.1,2.3c-0.1-0.1-0.2-0.2-0.2-0.3c-0.8-0.8-2.1-0.8-2.8,0c-0.4,0.4-0.6,0.9-0.6,1.4c0,0.5,0.2,1,0.6,1.4    C76.4,34.4,76.9,34.6,77.4,34.6z"/><path d="M88.8,49.4c-0.7-0.8-2.1-0.8-2.8,0c-0.2,0.2-0.4,0.5-0.5,0.8c0-1-0.7-1.8-1.7-2c-1-0.2-1.9,0.4-2.2,1.4    c0-0.5-0.2-1-0.6-1.4c-0.8-0.7-2.1-0.7-2.8,0c-0.4,0.4-0.6,0.9-0.6,1.4c0,0.5,0.2,1,0.6,1.4c0.4,0.4,0.9,0.6,1.4,0.6    c0.5,0,1-0.2,1.4-0.6c0.2-0.2,0.4-0.5,0.5-0.8c0,1,0.7,1.8,1.7,2c0.1,0,0.2,0,0.3,0c0.9,0,1.6-0.5,1.9-1.3c0,0.5,0.2,1,0.6,1.4    c0.4,0.4,0.9,0.6,1.4,0.6c0.5,0,1-0.2,1.4-0.6c0.4-0.4,0.6-0.9,0.6-1.4C89.4,50.3,89.2,49.8,88.8,49.4z"/><path d="M76.9,68.7c0.6-0.8,0.5-1.9-0.3-2.6c-0.7-0.7-1.8-0.7-2.6-0.1c0.2-0.3,0.3-0.7,0.3-1.1c0-0.5-0.2-1-0.6-1.4    c-0.7-0.7-2.1-0.7-2.8,0c-0.4,0.4-0.6,0.9-0.6,1.4c0,0.5,0.2,1,0.6,1.4c0.4,0.4,0.9,0.6,1.4,0.6c0.5,0,0.9-0.2,1.3-0.5    c-0.5,0.8-0.4,1.9,0.3,2.6c0.4,0.3,0.9,0.5,1.3,0.5c0.4,0,0.9-0.2,1.3-0.5c-0.2,0.3-0.3,0.7-0.3,1.1c0,0.5,0.2,1,0.6,1.4    c0.4,0.4,0.9,0.6,1.4,0.6c0.5,0,1-0.2,1.4-0.6c0.4-0.4,0.6-0.9,0.6-1.4c0-0.5-0.2-1-0.6-1.4C78.9,68.1,77.7,68.1,76.9,68.7z"/></g></g><g display="none"><path display="inline" fill="none" stroke="#000000" stroke-width="3" stroke-linecap="round" stroke-linejoin="round" d="M40,64"/><polyline display="inline" fill="none" stroke="#000000" stroke-width="3" stroke-linecap="round" stroke-linejoin="round" points="   59.4,42 49.4,66 42.6,59.2  "/></g><g display="none"><path display="inline" fill="none" stroke="#000000" stroke-width="3" stroke-linecap="round" stroke-linejoin="round" d="M40,64"/><line display="inline" fill="none" stroke="#000000" stroke-width="3" stroke-linecap="round" stroke-linejoin="round" x1="43.1" y1="42" x2="54.6" y2="62"/><line display="inline" fill="none" stroke="#000000" stroke-width="3" stroke-linecap="round" stroke-linejoin="round" x1="59.8" y1="37" x2="43.1" y2="66"/></g><g display="none"><g display="inline"><polyline fill="none" stroke="#000000" stroke-width="3" stroke-linecap="round" stroke-linejoin="round" points="51.6,39.9     50,35.5 48.4,39.9   "/><polyline fill="none" stroke="#000000" stroke-width="3" stroke-linecap="round" stroke-linejoin="round" points="43.9,41.7     39.7,39.7 41.7,43.9   "/><polyline fill="none" stroke="#000000" stroke-width="3" stroke-linecap="round" stroke-linejoin="round" points="58.2,44     60.3,39.7 56,41.7   "/><polyline fill="none" stroke="#000000" stroke-width="3" stroke-linecap="round" stroke-linejoin="round" points="60.1,51.6     64.5,50 60.1,48.4   "/><polyline fill="none" stroke="#000000" stroke-width="3" stroke-linecap="round" stroke-linejoin="round" points="56,58.3     60.3,60.3 58.2,56   "/><polyline fill="none" stroke="#000000" stroke-width="3" stroke-linecap="round" stroke-linejoin="round" points="48.4,60.1     50,64.5 51.6,60.1   "/><polyline fill="none" stroke="#000000" stroke-width="3" stroke-linecap="round" stroke-linejoin="round" points="41.7,56.1     39.7,60.3 43.9,58.3   "/><polyline fill="none" stroke="#000000" stroke-width="3" stroke-linecap="round" stroke-linejoin="round" points="39.8,48.5     35.5,50 39.8,51.5   "/></g><circle display="inline" fill="none" stroke="#000000" stroke-width="3" stroke-linecap="round" stroke-linejoin="round" cx="50" cy="50" r="6"/></g><g display="none"><path display="inline" fill="none" stroke="#000000" stroke-width="3" stroke-linecap="round" stroke-linejoin="round" d="   M50.1,77.3c0,0-3.4-18.6,6.8-32"/><path display="inline" fill="none" stroke="#000000" stroke-width="3" stroke-linecap="round" stroke-linejoin="round" d="   M49.6,71.5c0,0-7.7-13.1-2.1-24c5.7-11,15.6-12,15.6-12s2.9,10.7-2,20.5C57.5,63.1,49.6,71.5,49.6,71.5z"/><path display="inline" fill="none" stroke="#000000" stroke-width="3" stroke-linecap="round" stroke-linejoin="round" d="   M47.5,47.5c0,0-3.8-5.1-11.4-3.4C34.6,55,44.9,65.6,48.3,68.8"/><path display="inline" fill="none" stroke="#000000" stroke-width="3" stroke-linecap="round" stroke-linejoin="round" d="   M41.4,49.5c0,0,2.1,1.5,4,7.6"/></g><g display="none"><line display="inline" fill="none" stroke="#000000" stroke-width="3" stroke-linecap="round" x1="48" y1="49.3" x2="48" y2="78.3"/><line display="inline" fill="none" stroke="#000000" stroke-width="3" stroke-linecap="round" x1="52" y1="78.3" x2="52" y2="49.3"/><ellipse transform="matrix(-0.9397 -0.342 0.342 -0.9397 90.5 91.6803)" display="inline" fill="none" stroke="#000000" stroke-width="3" stroke-linecap="round" cx="53.3" cy="37.9" rx="2.4" ry="10"/><ellipse transform="matrix(0.766 -0.6428 0.6428 0.766 -21.9275 49.0092)" display="inline" fill="#000000" stroke="#000000" stroke-width="3" stroke-linecap="round" cx="56.4" cy="54.6" rx="2.4" ry="10"/><ellipse transform="matrix(0.1736 0.9848 -0.9848 0.1736 81.4503 0.6668)" display="inline" fill="none" stroke="#000000" stroke-width="3" stroke-linecap="round" cx="40.3" cy="48.9" rx="2.4" ry="10"/><circle display="inline" fill="#000000" stroke="#000000" stroke-width="3" stroke-linecap="round" cx="50" cy="47.1" r="4"/><circle display="inline" fill="#000000" stroke="#000000" stroke-width="3" stroke-linecap="round" cx="50" cy="47.1" r="4"/></g><g display="none"><ellipse display="inline" fill="none" stroke="#000000" stroke-width="3" stroke-linecap="round" stroke-linejoin="round" cx="50" cy="52" rx="6.3" ry="16"/><g display="inline"><circle cx="50" cy="67.9" r="3"/><path fill="#000000" d="M50,65.9c1.1,0,2,0.9,2,2c0,1.1-0.9,2-2,2s-2-0.9-2-2C48,66.8,48.9,65.9,50,65.9 M50,63.9    c-2.2,0-4,1.8-4,4s1.8,4,4,4s4-1.8,4-4S52.2,63.9,50,63.9L50,63.9z"/></g><circle display="inline" cx="50" cy="52" r="2.8"/><ellipse transform="matrix(0.5 -0.866 0.866 0.5 -19.9906 69.2762)" display="inline" fill="none" stroke="#000000" stroke-width="3" stroke-linecap="round" stroke-linejoin="round" cx="50" cy="52" rx="6.3" ry="16"/><g display="inline"><path d="M36.2,47c-0.5,0-1-0.1-1.5-0.4c-1.4-0.8-1.9-2.7-1.1-4.1c0.5-0.9,1.5-1.5,2.6-1.5c0.5,0,1,0.1,1.5,0.4    c0.7,0.4,1.2,1,1.4,1.8c0.2,0.8,0.1,1.6-0.3,2.3C38.2,46.4,37.3,47,36.2,47C36.2,47,36.2,47,36.2,47z"/><path fill="#000000" d="M36.2,42c0.3,0,0.7,0.1,1,0.3c1,0.6,1.3,1.8,0.7,2.7c-0.4,0.6-1,1-1.7,1c-0.3,0-0.7-0.1-1-0.3    c-1-0.6-1.3-1.8-0.7-2.7C34.8,42.3,35.5,42,36.2,42 M36.2,40c-1.4,0-2.8,0.8-3.5,2c-0.5,0.9-0.7,2-0.4,3c0.3,1,0.9,1.9,1.9,2.4    c0.6,0.4,1.3,0.5,2,0.5c1.4,0,2.8-0.8,3.5-2c0.5-0.9,0.7-2,0.4-3c-0.3-1-0.9-1.9-1.9-2.4C37.6,40.2,36.9,40,36.2,40L36.2,40z"/></g><circle display="inline" cx="50" cy="52" r="2.8"/><ellipse transform="matrix(0.5 0.866 -0.866 0.5 69.9902 -17.3261)" display="inline" fill="none" stroke="#000000" stroke-width="3" stroke-linecap="round" stroke-linejoin="round" cx="50" cy="52" rx="6.3" ry="16"/><g display="inline"><path d="M63.8,47c-1.1,0-2.1-0.6-2.6-1.5c-0.8-1.4-0.3-3.3,1.1-4.1c0.5-0.3,1-0.4,1.5-0.4c1.1,0,2.1,0.6,2.6,1.5    c0.8,1.4,0.3,3.3-1.1,4.1C64.9,46.8,64.3,47,63.8,47L63.8,47z"/><path fill="#000000" d="M63.8,42c0.7,0,1.4,0.4,1.7,1c0.6,1,0.2,2.2-0.7,2.7c-0.3,0.2-0.7,0.3-1,0.3c-0.7,0-1.4-0.4-1.7-1    c-0.6-1-0.2-2.2,0.7-2.7C63.1,42.1,63.5,42,63.8,42 M63.8,40c-0.7,0-1.4,0.2-2,0.5c-0.9,0.5-1.6,1.4-1.9,2.4c-0.3,1-0.1,2.1,0.4,3    c0.7,1.2,2,2,3.5,2c0.7,0,1.4-0.2,2-0.5c0.9-0.5,1.6-1.4,1.9-2.4c0.3-1,0.1-2.1-0.4-3C66.6,40.7,65.2,40,63.8,40L63.8,40z"/></g><circle display="inline" cx="50" cy="52" r="2"/></g><g display="none"><polygon display="inline" fill="none" stroke="#000000" stroke-width="3" stroke-linecap="round" stroke-linejoin="round" points="   47.4,35.5 59,58.3 49.9,55.9 53.5,71.5 41,48.8 48.9,49.3  "/></g><g display="none"><polyline display="inline" fill="none" stroke="#000000" stroke-width="3" stroke-linecap="round" stroke-linejoin="round" points="   54,63.1 51.5,69.5 46,65.2  "/><polyline display="inline" fill="none" stroke="#000000" stroke-width="3" stroke-linecap="round" stroke-linejoin="round" points="   51.5,69.5 46,49 53,54.6 47.9,35.5  "/></g><g display="none"><path display="inline" fill="none" stroke="#000000" stroke-width="3" stroke-linecap="round" stroke-linejoin="round" d="   M61.3,50.4c3.1,5.4,0.6,9.8-5.7,9.8h-5.6"/><path display="inline" fill="none" stroke="#000000" stroke-width="3" stroke-linecap="round" stroke-linejoin="round" d="   M44.3,40.5c3.1-5.4,8.2-5.4,11.3,0l2.7,4.7"/><path display="inline" fill="none" stroke="#000000" stroke-width="3" stroke-linecap="round" stroke-linejoin="round" d="   M44.3,60.2c-6.2,0-8.8-4.4-5.7-9.8l3-5.1"/><polyline display="inline" fill="none" stroke="#000000" stroke-width="3" stroke-linecap="round" stroke-linejoin="round" points="   53.4,56.8 50.1,60.2 53.4,63.5  "/><polyline display="inline" fill="none" stroke="#000000" stroke-width="3" stroke-linecap="round" stroke-linejoin="round" points="   53.9,43.8 58.4,45.2 59.8,40.7  "/><polyline display="inline" fill="none" stroke="#000000" stroke-width="3" stroke-linecap="round" stroke-linejoin="round" points="   37.1,46.7 41.6,45.2 43,49.7  "/></g><g display="none"><path display="inline" fill="none" stroke="#000000" stroke-width="3" stroke-linecap="round" d="M43,44c0-1.8-1.5-3.3-3.3-3.3   s-3.3,1.5-3.3,3.3v10.2c0,1.8,1.5,3.3,3.3,3.3S43,56,43,54.2V44z"/><path display="inline" fill="none" stroke="#000000" stroke-width="3" stroke-linecap="round" d="M49.6,47v-5.5   c0-1.8-1.5-3.3-3.3-3.3S43,39.7,43,41.5v10.2c0,1.8,1.5,3.3,3.3,3.3c1.7,0,3.1-1.3,3.2-2.9"/><path display="inline" fill="none" stroke="#000000" stroke-width="3" stroke-linecap="round" d="M56.1,47v-7.9   c0-1.8-1.5-3.3-3.3-3.3c-1.8,0-3.3,1.5-3.3,3.3V47"/><path display="inline" fill="none" stroke="#000000" stroke-width="3" stroke-linecap="round" d="M62.6,51.6V41.4   c0-1.8-1.5-3.3-3.3-3.3c-1.8,0-3.3,1.5-3.3,3.3V47"/><path display="inline" fill="none" stroke="#000000" stroke-width="3" stroke-linecap="round" stroke-linejoin="round" d="   M37.2,66.2c-0.7-2.4-0.7-6.1-0.7-11.2v-0.8"/><path display="inline" fill="none" stroke="#000000" stroke-width="3" stroke-linecap="round" stroke-linejoin="round" d="   M49.1,64.6c0,0,2-6.9,6.7-6.9v-3.9c-5.1,0-7.9-1.2-7.9-6.8l9.8,0c1.1,0,2,0.6,2.6,1.4c0,0,3.1,3.7,3.1,6.6c0,5.2-0.1,8.8-0.8,11.2"/></g><g display="none"><circle display="inline" cx="50" cy="46.8" r="5"/><path display="inline" fill="none" stroke="#000000" stroke-width="3" stroke-linecap="round" stroke-linejoin="round" d="M64,48   c-2.9,5.2-8.1,8.8-14,8.8c-5.9,0-11.1-3.5-14-8.7c2.9-5.3,8.1-8.8,14-8.8C55.9,39.2,61.1,42.7,64,48L64,48z"/></g><g display="none"><path display="inline" fill="none" stroke="#000000" stroke-width="3" stroke-linecap="round" stroke-linejoin="round" d="M50,68   c-7-6.2-14-12.7-14-20c0-5.9,3.3-8,6.9-8c3.6,0,7.1,4.8,7.1,4.8s3.5-4.8,7.1-4.8c3.5,0,6.9,2.2,6.9,8C64,55.3,57,61.8,50,68z"/></g><g display="none"><circle display="inline" fill="none" stroke="#000000" stroke-width="3" stroke-linecap="round" cx="50" cy="50" r="13.5"/><line display="inline" fill="none" stroke="#000000" stroke-width="3" stroke-linecap="round" x1="50" y1="63" x2="50" y2="36.5"/><line display="inline" fill="none" stroke="#000000" stroke-width="3" stroke-linecap="round" x1="50" y1="49" x2="60" y2="59.1"/><line display="inline" fill="none" stroke="#000000" stroke-width="3" stroke-linecap="round" x1="50" y1="49" x2="40" y2="59.1"/></g><g display="none"><path display="inline" fill="none" stroke="#000000" stroke-width="3" stroke-linecap="round" stroke-linejoin="round" d="   M44.8,48.8c-0.4-0.6-0.6-1.1-0.8-1.6c-0.6-1.8,0-5.1,0.4-7c0.6,2.1,3.4,3.8,3.4,3.8s-0.6-8.4,4.6-11.2c-1.5,8.3,3.4,9.9,3.4,13.2   c0,0.4,0,0.8-0.1,1.1c-0.1,0.6-0.3,1.2-0.6,1.7"/><polygon display="inline" fill="none" stroke="#000000" stroke-width="3" stroke-linecap="round" stroke-linejoin="round" points="   55.4,57.8 44.6,57.8 43,52.8 57,52.8  "/><polyline display="inline" fill="none" stroke="#000000" stroke-width="3" stroke-linecap="round" stroke-linejoin="round" points="   53.3,57.9 50,71.2 46.7,57.9  "/></g><g display="none"><line display="inline" fill="none" stroke="#000000" stroke-width="3" stroke-linecap="round" stroke-linejoin="round" x1="52.2" y1="40.3" x2="57" y2="42.3"/><rect x="49.7" y="35.6" transform="matrix(-0.9239 -0.3827 0.3827 -0.9239 82.6652 110.2015)" display="inline" fill="none" stroke="#000000" stroke-width="3" stroke-linecap="round" stroke-linejoin="round" width="5.2" height="22.5"/><polygon display="inline" stroke="#000000" stroke-width="3" stroke-linecap="round" stroke-linejoin="round" points="50.4,58.3    45,64.5 45.6,56.3  "/></g><g display="none"><g display="inline"><path d="M46,38c0-2.2,1.8-4,4-4s4,1.8,4,4H46z"/><path d="M46,38c0-2.2,1.8-4,4-4s4,1.8,4,4H46z"/></g><g display="inline"><path d="M46,62c0,2.2,1.8,4,4,4s4-1.8,4-4H46z"/><path d="M46,62c0,2.2,1.8,4,4,4s4-1.8,4-4H46z"/></g><rect x="43" y="38" display="inline" stroke="#000000" stroke-width="3" stroke-linecap="round" stroke-linejoin="round" width="14" height="24"/><line display="inline" fill="#000000" stroke="#FFFFFF" stroke-width="3" stroke-linecap="round" stroke-linejoin="round" x1="46" y1="55" x2="54" y2="55"/><line display="inline" fill="#000000" stroke="#FFFFFF" stroke-width="3" stroke-linecap="round" stroke-linejoin="round" x1="46" y1="45" x2="54" y2="45"/></g><g display="none"><circle display="inline" fill="none" stroke="#000000" stroke-width="3" stroke-linecap="round" stroke-linejoin="round" cx="50" cy="47.5" r="6"/><path display="inline" fill="none" stroke="#000000" stroke-width="3" stroke-linecap="round" stroke-linejoin="round" d="M38,47.5   c0-6.6,5.4-12,12-12s12,5.4,12,12s-12,24-12,24S38,54.1,38,47.5z"/></g><g display="none"><circle display="inline" fill="none" stroke="#000000" stroke-width="3" stroke-linecap="round" stroke-linejoin="round" cx="50" cy="50" r="14"/><line display="inline" fill="none" stroke="#000000" stroke-width="3" stroke-linecap="round" stroke-linejoin="round" x1="50" y1="50" x2="50" y2="44"/><line display="inline" fill="none" stroke="#000000" stroke-width="3" stroke-linecap="round" stroke-linejoin="round" x1="50" y1="50" x2="45" y2="42.7"/><line display="inline" fill="none" stroke="#000000" stroke-width="3" stroke-linecap="round" stroke-linejoin="round" x1="50" y1="36" x2="50" y2="39.3"/><line display="inline" fill="none" stroke="#000000" stroke-width="3" stroke-linecap="round" stroke-linejoin="round" x1="50" y1="64" x2="50" y2="60.7"/><line display="inline" fill="none" stroke="#000000" stroke-width="3" stroke-linecap="round" stroke-linejoin="round" x1="36" y1="50" x2="39.3" y2="50"/><line display="inline" fill="none" stroke="#000000" stroke-width="3" stroke-linecap="round" stroke-linejoin="round" x1="64" y1="50" x2="60.7" y2="50"/></g><g display="none"><circle display="inline" fill="none" stroke="#000000" stroke-width="3" stroke-linecap="round" stroke-linejoin="round" cx="50" cy="50" r="14"/><line display="inline" fill="none" stroke="#000000" stroke-width="3" stroke-linecap="round" stroke-linejoin="round" x1="50" y1="50" x2="45" y2="43.7"/><line display="inline" fill="none" stroke="#000000" stroke-width="3" stroke-linecap="round" stroke-linejoin="round" x1="50" y1="36" x2="50" y2="39.3"/><line display="inline" fill="none" stroke="#000000" stroke-width="3" stroke-linecap="round" stroke-linejoin="round" x1="50" y1="64" x2="50" y2="60.7"/><line display="inline" fill="none" stroke="#000000" stroke-width="3" stroke-linecap="round" stroke-linejoin="round" x1="36" y1="50" x2="39.3" y2="50"/><line display="inline" fill="none" stroke="#000000" stroke-width="3" stroke-linecap="round" stroke-linejoin="round" x1="64" y1="50" x2="60.7" y2="50"/><line display="inline" fill="none" stroke="#000000" stroke-width="3" stroke-linecap="round" stroke-linejoin="round" x1="50" y1="50" x2="56.6" y2="48.1"/></g><g display="none"><path display="inline" fill="#000000" stroke="#1A171B" stroke-width="3" stroke-linecap="round" stroke-linejoin="round" d="M49.8,67   c0,0-6.6,0.2-7.8-7.7c-0.5-3.4,0-7.6,0.6-10.3c0.8,3.1,3.2,4.1,3.2,4.1s0.5-16,7.4-20.1c-1.6,14.4,4.5,19.7,4.5,24.6   C57.8,62.4,54.6,66.9,49.8,67z"/></g><g display="none"><path display="inline" fill="#000000" stroke="#1A171B" stroke-width="3" stroke-linecap="round" stroke-linejoin="round" d="M47,77.2   c-0.9-6-0.6-16.3-2.5-25c-0.5-2.1-1.2-5.2-3-5.6c-1.5-0.4-3.7,1.2-4,3C37.2,51.5,38,53,39,53.8c6.8,5.7,21,4.9,23-0.7   c1.1-3.2-3.6-6.3-5.2-6c-1.3,0.3-1.2,4-1.5,7.3c-0.5,6,0.1,11.8-3.3,23.2"/></g><g display="none"><path display="inline" fill="none" stroke="#000000" stroke-width="3" stroke-linecap="round" stroke-linejoin="round" d="M42.3,73   c-4-6-2.9-16.9-2.9-16.9l-4.3-10.5c-0.4-1.1,0.2-2.3,1.2-2.6s2.3,0.2,2.6,1.2l3.3,8.5l1.4-0.4l-2.6-14.2c-0.2-1.1,0.6-2.2,1.7-2.4   c1.1-0.2,2.2,0.6,2.4,1.7L47.7,52l1.4,0V34.8c0-1.1,0.9-2.1,2.1-2.1c1.1,0,2.1,0.9,2.1,2.1V52l1.4,0.1l2.7-15   c0.2-1.1,1.3-1.9,2.4-1.7c1.1,0.2,1.9,1.3,1.7,2.4l-3.7,19.9"/><path display="inline" fill="none" stroke="#000000" stroke-width="3" stroke-linecap="round" stroke-linejoin="round" d="   M54.7,59.9c0,0,2.2-2.4,4.4-1.9l1.7-4.1c1.4-3.9,3.6-4.9,6.2-4l-1.9,5.8L63,61c-2.9,7.9-6.5,12-6.5,12"/></g></svg>
